<svg width="48" height="48" viewBox="0 0 48 48" fill="none" xmlns="http://www.w3.org/2000/svg">
<rect width="48" height="48" fill="#C8C8C8"/>
<path fill-rule="evenodd" clip-rule="evenodd" d="M19 17.75C19 16.4239 19.5268 15.1521 20.4645 14.2145C21.4021 13.2768 22.6739 12.75 24 12.75C25.3261 12.75 26.5979 13.2768 27.5355 14.2145C28.4732 15.1521 29 16.4239 29 17.75C29 19.0761 28.4732 20.3479 27.5355 21.2855C26.5979 22.2232 25.3261 22.75 24 22.75C22.6739 22.75 21.4021 22.2232 20.4645 21.2855C19.5268 20.3479 19 19.0761 19 17.75ZM19 25.25C17.3424 25.25 15.7527 25.9085 14.5806 27.0806C13.4085 28.2527 12.75 29.8424 12.75 31.5C12.75 32.4946 13.1451 33.4484 13.8483 34.1517C14.5516 34.8549 15.5054 35.25 16.5 35.25H31.5C32.4946 35.25 33.4484 34.8549 34.1517 34.1517C34.8549 33.4484 35.25 32.4946 35.25 31.5C35.25 29.8424 34.5915 28.2527 33.4194 27.0806C32.2473 25.9085 30.6576 25.25 29 25.25H19Z" fill="black"/>
</svg>
