<svg width="24" height="25" viewBox="0 0 24 25" fill="none" xmlns="http://www.w3.org/2000/svg">
<path d="M17.5172 12.9827C17.5078 11.3843 18.232 10.1796 19.6945 9.29131C18.8766 8.11943 17.6391 7.4749 16.0078 7.35068C14.4633 7.22881 12.7734 8.25068 12.1547 8.25068C11.5008 8.25068 10.0055 7.39287 8.82891 7.39287C6.40078 7.43037 3.82031 9.32881 3.82031 13.1913C3.82031 14.3327 4.02891 15.5116 4.44609 16.7257C5.00391 18.3241 7.01484 22.2405 9.1125 22.1772C10.2094 22.1515 10.9852 21.3991 12.4125 21.3991C13.7977 21.3991 14.5148 22.1772 15.7383 22.1772C17.8547 22.1468 19.6734 18.5866 20.2031 16.9835C17.3648 15.6452 17.5172 13.0647 17.5172 12.9827ZM15.0539 5.83428C16.2422 4.42334 16.1344 3.13896 16.0992 2.67725C15.0492 2.73818 13.8352 3.39209 13.1437 4.196C12.382 5.0585 11.9344 6.1249 12.0305 7.32725C13.1648 7.41397 14.2008 6.83037 15.0539 5.83428Z" fill="black"/>
</svg>
