<svg width="24" height="25" viewBox="0 0 24 25" fill="none" xmlns="http://www.w3.org/2000/svg">
<path d="M21.8055 10.4687H21V10.4272H12V14.4272H17.6515C16.827 16.7557 14.6115 18.4272 12 18.4272C8.6865 18.4272 6 15.7407 6 12.4272C6 9.11375 8.6865 6.42725 12 6.42725C13.5295 6.42725 14.921 7.00425 15.9805 7.94675L18.809 5.11825C17.023 3.45375 14.634 2.42725 12 2.42725C6.4775 2.42725 2 6.90475 2 12.4272C2 17.9497 6.4775 22.4272 12 22.4272C17.5225 22.4272 22 17.9497 22 12.4272C22 11.7567 21.931 11.1022 21.8055 10.4687Z" fill="#FFC107"/>
<path d="M3.15283 7.77275L6.43833 10.1822C7.32733 7.98125 9.48033 6.42725 11.9998 6.42725C13.5293 6.42725 14.9208 7.00425 15.9803 7.94675L18.8088 5.11825C17.0228 3.45375 14.6338 2.42725 11.9998 2.42725C8.15883 2.42725 4.82783 4.59575 3.15283 7.77275Z" fill="#FF3D00"/>
<path d="M12.0002 22.4271C14.5832 22.4271 16.9302 21.4386 18.7047 19.8311L15.6097 17.2121C14.5719 18.0013 13.3039 18.4281 12.0002 18.4271C9.39916 18.4271 7.19066 16.7686 6.35866 14.4541L3.09766 16.9666C4.75266 20.2051 8.11366 22.4271 12.0002 22.4271Z" fill="#4CAF50"/>
<path d="M21.8055 10.4687H21V10.4272H12V14.4272H17.6515C17.2571 15.5355 16.5467 16.5038 15.608 17.2127L15.6095 17.2117L18.7045 19.8307C18.4855 20.0297 22 17.4272 22 12.4272C22 11.7567 21.931 11.1022 21.8055 10.4687Z" fill="#1976D2"/>
</svg>
