<svg width="31" height="31" viewBox="0 0 31 31" fill="none" xmlns="http://www.w3.org/2000/svg">
<g clip-path="url(#clip0_287_7253)">
<path d="M27.4824 5.38672L16.2852 0.716797C15.8281 0.517578 15.3008 0.517578 14.8379 0.716797L3.64648 5.38086C2.94922 5.67383 2.49219 6.34766 2.49219 7.10352V17.457C2.49219 24.6582 8.35742 30.5117 15.5586 30.5117C22.7598 30.5117 28.625 24.6523 28.625 17.457V7.10352C28.625 6.35352 28.1738 5.67969 27.4824 5.38672ZM26.2812 17.4629C26.2812 23.3691 21.4648 28.1738 15.5586 28.1738C9.65234 28.1738 4.83594 23.3691 4.83594 17.4629V7.42578L15.5586 2.95508L26.2812 7.42578V17.4629Z" fill="white"/>
<path d="M11.1759 14.6212C10.7716 14.1173 10.0333 14.0353 9.52937 14.4396C9.02546 14.8439 8.94343 15.5821 9.34773 16.086L11.9727 19.3614C11.9786 19.3673 11.9844 19.3732 11.9844 19.379C11.9903 19.3907 12.002 19.3966 12.0079 19.4083C12.0137 19.4142 12.0196 19.4259 12.0313 19.4318L12.0606 19.461C12.0665 19.4669 12.0782 19.4728 12.0841 19.4845L12.1134 19.5138L12.1368 19.5372C12.1485 19.5431 12.1544 19.5548 12.1661 19.5607C12.1837 19.5724 12.2012 19.59 12.2188 19.6017C12.2247 19.6017 12.2247 19.6075 12.2305 19.6075C12.2481 19.6193 12.2657 19.631 12.2774 19.6368C12.2833 19.6427 12.2891 19.6427 12.295 19.6485C12.3126 19.6544 12.3243 19.6661 12.3419 19.672C12.3477 19.6778 12.3536 19.6778 12.3594 19.6837C12.3712 19.6896 12.3887 19.6954 12.4005 19.7071C12.4063 19.713 12.4122 19.713 12.418 19.7189C12.4298 19.7247 12.4473 19.7306 12.4591 19.7364C12.4649 19.7364 12.4708 19.7423 12.4825 19.7423C12.4942 19.7482 12.5118 19.754 12.5235 19.754C12.5294 19.754 12.5411 19.7599 12.5469 19.7599C12.5587 19.7657 12.5762 19.7657 12.588 19.7716C12.5938 19.7716 12.6055 19.7775 12.6114 19.7775C12.6231 19.7833 12.6407 19.7833 12.6524 19.7892C12.6583 19.7892 12.67 19.795 12.6759 19.795C12.6876 19.795 12.7051 19.8009 12.7169 19.8009C12.7286 19.8009 12.7344 19.8009 12.7462 19.8068C12.7579 19.8068 12.7696 19.8068 12.7872 19.8126H12.8809C12.9102 19.8126 12.9395 19.8126 12.9747 19.8068H12.9981C13.0216 19.8068 13.045 19.8009 13.0684 19.8009C13.0801 19.8009 13.086 19.795 13.0977 19.795C13.1153 19.7892 13.1387 19.7892 13.1563 19.7833C13.168 19.7833 13.1798 19.7775 13.1915 19.7716L13.2442 19.754C13.2559 19.7482 13.2677 19.7482 13.2794 19.7423L13.3321 19.7247L13.3673 19.7071C13.3848 19.7013 13.4024 19.6896 13.4141 19.6837L13.4493 19.6661C13.4786 19.6485 13.502 19.6368 13.5313 19.6193L21.9747 14.006C22.5137 13.6485 22.6602 12.922 22.3028 12.3829C21.9454 11.8439 21.2188 11.6974 20.6798 12.0548L13.127 17.0763L11.1759 14.6212Z" fill="white"/>
</g>
<defs>
<clipPath id="clip0_287_7253">
<rect width="30" height="30" fill="white" transform="translate(0.5 0.5)"/>
</clipPath>
</defs>
</svg>
