<svg width="40" height="40" viewBox="0 0 40 40" fill="none" xmlns="http://www.w3.org/2000/svg">
<path d="M4.44444 11.4444C4.44444 10.2657 4.9127 9.13524 5.74619 8.30175C6.57969 7.46825 7.71015 7 8.88889 7H31.1111C32.2899 7 33.4203 7.46825 34.2538 8.30175C35.0873 9.13524 35.5556 10.2657 35.5556 11.4444V20.3333C36.7343 20.3333 37.8648 20.8016 38.6983 21.6351C39.5317 22.4686 40 23.599 40 24.7778C40 25.9565 39.5317 27.087 38.6983 27.9205C37.8648 28.754 36.7343 29.2222 35.5556 29.2222V32.5556C35.5556 32.8502 35.4385 33.1329 35.2301 33.3412C35.0217 33.5496 34.7391 33.6667 34.4444 33.6667C34.1498 33.6667 33.8671 33.5496 33.6588 33.3412C33.4504 33.1329 33.3333 32.8502 33.3333 32.5556V29.2222H6.66667V32.5556C6.66667 32.8502 6.5496 33.1329 6.34123 33.3412C6.13286 33.5496 5.85024 33.6667 5.55556 33.6667C5.26087 33.6667 4.97826 33.5496 4.76988 33.3412C4.56151 33.1329 4.44444 32.8502 4.44444 32.5556V29.2222C3.2657 29.2222 2.13524 28.754 1.30175 27.9205C0.468253 27.087 0 25.9565 0 24.7778C0 23.599 0.468253 22.4686 1.30175 21.6351C2.13524 20.8016 3.2657 20.3333 4.44444 20.3333V11.4444ZM35.5556 27C36.1449 27 36.7102 26.7659 37.1269 26.3491C37.5437 25.9324 37.7778 25.3671 37.7778 24.7778C37.7778 24.1884 37.5437 23.6232 37.1269 23.2064C36.7102 22.7897 36.1449 22.5556 35.5556 22.5556H4.44444C3.85507 22.5556 3.28984 22.7897 2.8731 23.2064C2.45635 23.6232 2.22222 24.1884 2.22222 24.7778C2.22222 25.3671 2.45635 25.9324 2.8731 26.3491C3.28984 26.7659 3.85507 27 4.44444 27H35.5556ZM33.3333 11.4444C33.3333 10.8551 33.0992 10.2898 32.6825 9.8731C32.2657 9.45635 31.7005 9.22222 31.1111 9.22222H8.88889C8.29952 9.22222 7.73429 9.45635 7.31754 9.8731C6.90079 10.2898 6.66667 10.8551 6.66667 11.4444V20.3333H33.3333V11.4444Z" fill="black"/>
</svg>
