<svg width="40" height="40" viewBox="0 0 40 40" fill="none" xmlns="http://www.w3.org/2000/svg">
<path d="M8.15347 1C6.6671 1 5.31265 2.00032 4.96131 3.53186C4.56947 5.24179 4 8.17536 4 10.9107C3.9997 12.3044 4.33462 13.6773 4.97587 14.9108C5.61711 16.1443 6.54541 17.2014 7.68065 17.9909C8.29192 18.4151 8.57143 18.9331 8.57143 19.3546C8.571 19.3988 8.56838 19.4429 8.56359 19.4868C8.48784 20.1343 8.16522 22.8961 7.8609 25.7556C7.56049 28.5676 7.26531 31.603 7.26531 32.7143C7.26531 34.1161 7.81574 35.4606 8.79552 36.4519C9.77531 37.4431 11.1042 38 12.4898 38C13.8754 38 15.2043 37.4431 16.1841 36.4519C17.1639 35.4606 17.7143 34.1161 17.7143 32.7143C17.7143 31.6043 17.4178 28.5676 17.1187 25.7556C16.8144 22.8961 16.4918 20.133 16.416 19.4855C16.4112 19.4416 16.4086 19.3975 16.4082 19.3533C16.4082 18.9331 16.6877 18.4151 17.2976 17.9909C18.4331 17.2016 19.3617 16.1445 20.0031 14.911C20.6446 13.6775 20.9797 12.3046 20.9796 10.9107C20.9796 8.17404 20.4114 5.24047 20.0183 3.53186C19.6669 2.00032 18.3125 1 16.8261 1C16.0502 0.998825 15.298 1.27071 14.6984 1.76908C14.068 1.27002 13.2903 0.999231 12.4898 1C11.6565 1 10.8898 1.28675 10.2811 1.76908C9.6816 1.27071 8.92941 0.998825 8.15347 1ZM16.0816 4.39608C16.0816 4.19631 16.1601 4.00473 16.2997 3.86347C16.4393 3.72222 16.6287 3.64286 16.8261 3.64286C17.1657 3.64286 17.4139 3.86222 17.474 4.13047C17.8527 5.78093 18.3673 8.48061 18.3673 10.9107C18.3675 11.8759 18.1355 12.8265 17.6913 13.6807C17.2471 14.5348 16.6041 15.2667 15.8178 15.8132C14.786 16.5308 13.7959 17.7597 13.7959 19.3546C13.7959 19.5018 13.8046 19.6498 13.822 19.7986C13.8978 20.4422 14.2191 23.1947 14.5221 26.0384C14.8278 28.9284 15.102 31.7827 15.102 32.7143C15.102 33.4152 14.8268 34.0874 14.3369 34.5831C13.847 35.0787 13.1826 35.3571 12.4898 35.3571C11.797 35.3571 11.1326 35.0787 10.6427 34.5831C10.1528 34.0874 9.87755 33.4152 9.87755 32.7143C9.87755 31.7827 10.1505 28.9284 10.4575 26.0384C10.7605 23.1947 11.0818 20.4422 11.1576 19.7986C11.175 19.6489 11.1837 19.5009 11.1837 19.3546C11.1837 17.7597 10.1923 16.5308 9.1618 15.8132C8.37549 15.2667 7.73247 14.5348 7.28828 13.6807C6.84409 12.8265 6.61206 11.8759 6.61225 10.9107C6.61225 8.47929 7.12686 5.78093 7.50563 4.13047C7.54181 3.98626 7.62597 3.85906 7.74395 3.77026C7.86194 3.68145 8.00655 3.63647 8.15347 3.64286C8.35092 3.64286 8.54028 3.72222 8.6799 3.86347C8.81952 4.00473 8.89796 4.19631 8.89796 4.39608V11.5714C8.89796 11.9219 9.03557 12.258 9.28051 12.5058C9.52546 12.7536 9.85768 12.8929 10.2041 12.8929C10.5505 12.8929 10.8827 12.7536 11.1276 12.5058C11.3726 12.258 11.5102 11.9219 11.5102 11.5714V4.63393C11.5102 4.37108 11.6134 4.119 11.7971 3.93314C11.9808 3.74728 12.23 3.64286 12.4898 3.64286C12.7496 3.64286 12.9988 3.74728 13.1825 3.93314C13.3662 4.119 13.4694 4.37108 13.4694 4.63393V11.5714C13.4694 11.9219 13.607 12.258 13.8519 12.5058C14.0969 12.7536 14.4291 12.8929 14.7755 12.8929C15.1219 12.8929 15.4541 12.7536 15.6991 12.5058C15.944 12.258 16.0816 11.9219 16.0816 11.5714V4.39608ZM25.551 10.9107C25.5508 9.09737 26.2206 7.34942 27.4289 6.01008C28.6372 4.67075 30.2967 3.83678 32.0816 3.67193V18.1786C32.0816 18.5473 32.1535 19.3784 32.2475 20.3695C32.3455 21.3963 32.4787 22.6926 32.6184 24.0589V24.0629C32.9881 27.6453 33.3878 31.5726 33.3878 32.7143C33.3878 33.4152 33.1125 34.0874 32.6226 34.5831C32.1328 35.0787 31.4683 35.3571 30.7755 35.3571C30.0827 35.3571 29.4183 35.0787 28.9284 34.5831C28.4385 34.0874 28.1633 33.4152 28.1633 32.7143C28.1633 31.7708 28.4402 28.598 28.7484 25.3883C28.9719 23.0775 29.2048 20.7676 29.4472 18.4587C29.4547 18.3888 29.4603 18.3188 29.4642 18.2486C29.4736 18.0694 29.4468 17.8901 29.3854 17.7217C29.3241 17.5533 29.2295 17.3993 29.1074 17.2691C28.9853 17.1389 28.8383 17.0352 28.6753 16.9644C28.5123 16.8936 28.3367 16.8571 28.1593 16.8571H26.2041C26.0309 16.8571 25.8648 16.7875 25.7423 16.6636C25.6198 16.5397 25.551 16.3717 25.551 16.1964V10.9107ZM32.7347 1C30.1367 1 27.645 2.04417 25.8079 3.90278C23.9708 5.7614 22.9388 8.28223 22.9388 10.9107V16.1964C22.9388 17.0726 23.2828 17.9129 23.8952 18.5324C24.5075 19.1519 25.3381 19.5 26.2041 19.5H26.7122C26.5181 21.3766 26.3304 23.254 26.1492 25.1319C25.8488 28.2637 25.551 31.6069 25.551 32.7143C25.551 34.1161 26.1015 35.4606 27.0812 36.4519C28.061 37.4431 29.3899 38 30.7755 38C32.1611 38 33.49 37.4431 34.4698 36.4519C35.4496 35.4606 36 34.1161 36 32.7143C36 31.4127 35.586 27.385 35.2346 23.9519L35.2176 23.7907C35.0904 22.5661 34.9672 21.3412 34.848 20.1158C34.7461 19.0613 34.6939 18.3874 34.6939 18.1786V2.32143C34.6939 1.97097 34.5563 1.63486 34.3113 1.38704C34.0664 1.13923 33.7342 1 33.3878 1H32.7347Z" fill="black"/>
</svg>
