<svg width="120" height="72" viewBox="0 0 120 72" fill="none" xmlns="http://www.w3.org/2000/svg">
<path d="M69.2022 9.2797C69.56 9.41628 69.9128 9.56524 70.2622 9.72065C70.5149 9.8125 70.7676 9.90436 71.0279 9.999C74.6776 11.3839 78.3997 13.859 80.6804 17.0111C82.3094 20.8874 81.5559 26.0942 81.1953 30.1515C81.181 30.3944 81.1668 30.6373 81.1521 30.8876C81.0413 31.8897 80.9533 32.5289 80.163 33.2207C79.5421 33.5932 78.9263 33.8961 78.2576 34.1788C77.9802 34.301 77.7029 34.4232 77.4172 34.549C76.6491 34.8229 75.881 35.0946 75.1079 35.3547C74.9174 35.4196 74.7269 35.4845 74.5306 35.5513C71.3288 36.5584 68.0589 37.193 64.6897 37.0009C63.2568 34.4085 61.861 31.8074 60.6071 29.1283C60.4002 28.6872 60.1915 28.2468 59.982 27.8068C59.6043 27.0123 59.2316 26.2157 58.8598 25.4186C58.6773 25.0361 58.6773 25.0361 58.4912 24.6459C58.3801 24.4049 58.2691 24.1639 58.1547 23.9157C58.0541 23.7009 57.9535 23.4862 57.8499 23.265C57.5831 22.3923 57.7587 21.7959 58.1367 20.9824C59.7918 18.2581 62.0131 15.8447 64.2099 13.522C64.6675 13.0366 65.1112 12.5421 65.5528 12.043C65.6884 11.8951 65.8239 11.7471 65.9636 11.5947C66.2667 11.2622 66.5625 10.9233 66.8532 10.5805C68.0672 9.2417 68.0672 9.2417 69.2022 9.2797Z" fill="#C21922"/>
<path d="M41.6565 21.4482C43.1342 21.4524 44.575 21.5492 46.0416 21.7204C46.2636 21.7453 46.4857 21.7703 46.7145 21.7961C47.1804 21.8488 47.6462 21.9022 48.112 21.9562C48.8183 22.038 49.5248 22.1173 50.2314 22.1962C50.6873 22.2481 51.1431 22.3002 51.599 22.3524C51.9106 22.3873 51.9106 22.3873 52.2286 22.423C52.8301 22.4935 53.4296 22.5724 54.0294 22.6555C54.3586 22.6976 54.3586 22.6976 54.6944 22.7405C56.3219 22.9903 56.3219 22.9903 56.9219 23.6145C57.0008 23.8164 57.0798 24.0184 57.1611 24.2264C57.2574 24.4565 57.3537 24.6866 57.4529 24.9236C57.5947 25.2997 57.5947 25.2997 57.7393 25.6834C57.9602 26.2175 58.182 26.7512 58.4047 27.2846C58.5189 27.565 58.6332 27.8454 58.7509 28.1343C59.3069 29.4763 59.9432 30.783 60.5768 32.0918C60.7777 32.5072 60.9769 32.9235 61.1761 33.3398C61.9178 34.8868 62.6819 36.4207 63.4784 37.9419C60.9555 40.3329 58.3633 42.5484 55.4831 44.5268C55.1429 44.7705 55.1429 44.7705 54.796 45.0192C53.8997 45.571 53.3818 45.7629 52.3249 45.5649C51.481 45.2739 50.7077 44.9227 49.9105 44.5268C49.6469 44.4031 49.3833 44.2794 49.1118 44.152C46.4065 42.8202 44.0497 41.1911 42.1575 38.8826C41.9863 38.6922 41.8152 38.5018 41.6388 38.3057C37.9792 34.1735 37.9792 34.1735 37.8418 31.7833C37.9913 29.972 38.5816 28.1866 39.101 26.448C39.2243 26.0344 39.342 25.6193 39.4583 25.2039C40.5144 21.5249 40.5144 21.5249 41.6565 21.4482Z" fill="#BA1922"/>
<path d="M57.1941 0.011433C59.4638 -0.156378 61.3679 1.55739 62.9938 2.90059C64.3638 4.07248 65.3934 5.41554 66.3858 6.89856C66.5319 7.09683 66.6781 7.29509 66.8287 7.49936C67.1126 8.07444 67.1126 8.07444 66.964 8.57051C66.6231 9.02164 66.2751 9.39575 65.8558 9.77946C65.0892 10.5021 64.3828 11.2548 63.6866 12.0412C63.3819 12.3805 63.0712 12.7148 62.7553 13.0443C60.4842 15.4177 58.3188 18.0162 56.6831 20.8474C56.4522 21.2442 56.4522 21.2442 56.2099 21.4794C54.2724 21.572 52.4015 21.3009 50.4859 21.0384C50.1795 20.9975 49.8732 20.9566 49.5575 20.9144C48.939 20.8318 48.3206 20.7487 47.7023 20.6651C45.5329 20.3738 43.3621 20.0916 41.1883 19.8332C39.5369 10.8429 39.5369 10.8429 41.2593 8.1562C41.8279 7.48243 42.4807 6.95738 43.2166 6.46278C43.8178 6.05173 44.3385 5.55468 44.8831 5.07596C48.4604 2.36478 52.7025 0.614214 57.1941 0.011433Z" fill="#B71922"/>
<path d="M80.4381 34.4141C80.678 34.5305 80.678 34.5305 80.9227 34.6492C79.6999 36.7071 78.2462 38.3595 76.5616 40.0583C76.4201 40.2132 76.2786 40.3681 76.1328 40.5277C73.4991 43.3301 69.5753 44.9066 65.9011 45.9376C65.7413 45.9831 65.5816 46.0286 65.417 46.0755C63.7594 46.4927 62.1227 46.4692 60.4194 46.4521C60.1315 46.4519 59.8435 46.4518 59.5468 46.4516C58.169 46.4449 56.8395 46.4141 55.4829 46.1728C56.1311 45.6657 56.7835 45.1657 57.4439 44.6736C60.8404 42.1649 60.8404 42.1649 63.766 39.1736C64.7941 38.3794 65.8161 38.4049 67.0974 38.3091C71.6347 37.8604 76.0111 36.7276 80.0274 34.5868C80.1629 34.5298 80.2985 34.4728 80.4381 34.4141Z" fill="#BC1A23"/>
<path d="M88.9182 53.4629C89.7977 53.4629 90.6771 53.4629 91.5833 53.4629C91.5868 53.8318 91.5904 54.2008 91.594 54.5809C91.6081 55.9533 91.6268 57.3255 91.6469 58.6978C91.6549 59.2911 91.6617 59.8843 91.6672 60.4777C91.6754 61.3318 91.6881 62.1858 91.7016 63.0398C91.7031 63.304 91.7047 63.5681 91.7063 63.8403C91.7401 65.5979 91.9322 67.2065 93.2793 68.5141C94.549 69.0873 95.849 69.2137 97.1918 68.8393C98.3422 68.3702 98.8105 67.8703 99.369 66.7505C99.7797 65.598 99.7249 64.4084 99.7263 63.2006C99.7303 62.9214 99.7343 62.6422 99.7384 62.3545C99.7501 61.468 99.7553 60.5816 99.7604 59.695C99.7672 59.0918 99.7744 58.4885 99.7821 57.8853C99.8 56.4112 99.812 54.9371 99.8209 53.4629C100.7 53.4629 101.58 53.4629 102.486 53.4629C102.504 55.2327 102.517 57.0025 102.526 58.7724C102.53 59.3739 102.535 59.9754 102.541 60.5769C102.55 61.4438 102.554 62.3107 102.557 63.1776C102.561 63.4445 102.565 63.7114 102.568 63.9863C102.569 66.2583 102.168 68.2094 100.548 69.9251C98.5826 71.4935 96.2086 71.5512 93.7638 71.3362C92.1291 70.9465 90.908 70.0334 89.8873 68.7493C89.1172 67.4603 88.887 66.1207 88.8907 64.6495C88.8907 64.4 88.8907 64.1506 88.8907 63.8936C88.892 63.627 88.8932 63.3604 88.8945 63.0858C88.8949 62.8108 88.8952 62.5358 88.8956 62.2525C88.8969 61.3755 88.8999 60.4985 88.903 59.6215C88.9042 59.0264 88.9054 58.4313 88.9063 57.8361C88.909 56.3784 88.9132 54.9206 88.9182 53.4629Z" fill="#DF1F27"/>
<path d="M69.7772 54.0925C71.3946 55.132 72.4888 56.274 73.4114 57.9316C72.6542 58.5535 71.9364 58.8356 70.9886 59.1075C70.8691 58.9242 70.8691 58.9242 70.7473 58.7372C69.7226 57.279 68.5397 56.3289 66.7449 55.9069C64.813 55.612 63.2754 55.8482 61.5395 56.7557C60.2797 57.7659 59.3562 58.9327 59.1167 60.5185C58.8638 63.8925 58.8638 63.8925 60.3281 66.8682C61.6938 68.143 63.0653 68.8152 64.9769 68.8378C66.8116 68.7996 68.27 68.5268 69.6305 67.2752C70.1063 66.7615 70.5563 66.2409 70.9886 65.6924C71.7082 65.9252 72.4278 66.158 73.1692 66.3979C72.9436 67.9772 71.942 68.8841 70.7104 69.8731C68.4294 71.4618 65.9876 71.5608 63.2355 71.3366C60.998 70.8593 59.1718 69.8067 57.8447 67.9853C57.6156 67.617 57.3933 67.2446 57.1784 66.8682C57.0276 66.6199 57.0276 66.6199 56.8737 66.3666C55.781 64.2379 55.8683 61.4914 56.4062 59.2149C57.307 56.8679 58.9955 55.0343 61.2869 53.896C63.6306 52.9607 67.5274 52.9812 69.7772 54.0925Z" fill="#BF1B24"/>
<path d="M11.4204 54.4961C12.3374 55.2051 12.905 55.9105 13.3256 56.9911C13.3256 57.2239 13.3256 57.4568 13.3256 57.6966C12.5261 57.8518 11.7265 58.0071 10.9028 58.167C10.8178 57.9536 10.7329 57.7401 10.6453 57.5203C9.98042 56.4376 9.21366 56.0823 7.99535 55.6389C6.50685 55.4582 5.45207 55.5887 4.11882 56.2856C3.45834 56.8646 3.39959 57.1681 3.28597 58.0347C3.41645 59.066 3.54808 59.3693 4.3611 60.0484C5.52446 60.5704 6.73175 60.9352 7.98021 61.2096C10.1485 61.7129 12.0906 62.4005 13.3256 64.2815C13.9531 65.4997 13.712 67.3566 13.3104 68.6176C12.3258 69.8816 11.1202 70.9013 9.50016 71.2449C6.72004 71.5732 4.43449 71.5346 2.11998 69.9698C0.945913 69.0653 0.179017 68.1103 0 66.6333C1.85827 65.9621 1.85827 65.9621 2.66512 66.1629C2.94999 66.5506 2.94999 66.5506 3.24054 67.0448C3.83153 68.0343 4.40925 68.6767 5.57252 68.985C7.80985 69.2364 7.80985 69.2364 9.88819 68.5588C10.7005 67.7703 10.7042 67.0409 10.7873 65.959C10.5818 65.1464 10.1045 64.8046 9.44905 64.2815C8.62657 63.9239 8.62657 63.9239 7.72278 63.6789C7.39996 63.5818 7.07724 63.4844 6.7546 63.3868C6.59598 63.3398 6.43736 63.2929 6.27393 63.2446C5.61423 63.045 4.96506 62.8203 4.31567 62.5912C4.11235 62.52 3.90903 62.4487 3.69955 62.3753C2.42814 61.8889 1.80984 61.3643 0.969134 60.2836C0.467235 58.822 0.452247 57.0949 1.12056 55.6976C3.92443 52.8328 7.89711 52.2703 11.4204 54.4961Z" fill="#83161F"/>
<path d="M17.9292 53.4632C18.7287 53.4632 19.5283 53.4632 20.352 53.4632C20.352 55.9466 20.352 58.4301 20.352 60.9888C20.9117 60.9888 21.4714 60.9888 22.048 60.9888C22.1133 60.8516 22.1785 60.7145 22.2458 60.5731C22.5342 60.0451 22.8512 59.6307 23.2452 59.1726C23.4556 58.9261 23.4556 58.9261 23.6702 58.6746C23.9759 58.3214 24.2821 57.9685 24.5886 57.616C25.2666 56.8334 25.9342 56.0613 26.5227 55.2123C27.7297 53.5336 27.7297 53.5336 28.938 53.307C29.73 53.302 30.4726 53.347 31.2548 53.4632C30.5811 54.483 29.846 55.4129 29.0288 56.3294C28.7927 56.5972 28.5567 56.8651 28.3209 57.1332C28.2036 57.2664 28.0863 57.3996 27.9655 57.5368C26.7734 58.9007 25.6203 60.2966 24.4709 61.6943C24.8689 62.5672 25.4276 63.2657 26.0306 64.0167C26.1363 64.1489 26.2421 64.2811 26.3512 64.4174C27.2659 65.5587 28.1889 66.6938 29.1104 67.83C31.4971 70.7759 31.4971 70.7759 31.4971 71.1013C30.3983 71.2818 29.4414 71.3304 28.3474 71.1013C27.3395 70.2909 26.6559 69.3195 25.9246 68.2792C25.6395 67.9244 25.352 67.5714 25.0614 67.2209C24.5854 66.6295 24.1367 66.0325 23.6995 65.413C23.6065 65.284 23.5134 65.155 23.4175 65.0221C23.1517 64.6527 22.8912 64.2796 22.631 63.9064C21.9821 63.1634 21.9821 63.1634 20.352 63.1053C20.352 65.744 20.352 68.3827 20.352 71.1013C19.5525 71.1013 18.753 71.1013 17.9292 71.1013C17.9292 65.2807 17.9292 59.4601 17.9292 53.4632Z" fill="#951720"/>
<path d="M62.2666 0.314012C63.5038 0.27367 64.6159 0.398614 65.81 0.696171C65.9788 0.738082 66.1475 0.779994 66.3214 0.823175C67.9731 1.25574 69.4736 1.89555 70.9888 2.66576C71.2683 2.8037 71.5479 2.94163 71.8359 3.08375C73.9455 4.16179 75.6176 5.49119 77.2882 7.13408C77.4646 7.30567 77.6411 7.47725 77.8229 7.65404C81.3571 11.2943 81.3571 11.2943 81.4363 13.2771C81.3159 13.8533 81.1681 14.3585 80.9224 14.8949C79.8326 14.1219 78.7845 13.3201 77.7576 12.4696C75.5195 10.6946 73.2727 9.38406 70.5042 8.57453C69.1456 8.16471 68.358 7.83045 67.5817 6.60494C67.344 6.15444 67.1067 5.70368 66.87 5.25268C65.7898 3.79534 64.5716 2.49233 63.2357 1.25471C62.9127 0.941145 62.5896 0.627578 62.2666 0.314012Z" fill="#C31B23"/>
<path d="M32.9507 53.463C33.9876 53.2399 34.8282 53.1847 35.8581 53.463C36.845 54.4709 37.4497 55.6431 38.0992 56.873C38.2834 57.2021 38.4685 57.5307 38.6548 57.8587C39.1074 58.6611 39.5456 59.4696 39.9769 60.2831C40.2314 59.8888 40.4857 59.4944 40.7396 59.0998C40.9595 58.7594 41.1807 58.4198 41.4033 58.081C41.9362 57.2652 42.4461 56.4547 42.89 55.5897C43.3218 54.7877 43.6937 54.118 44.338 53.463C45.3565 53.2128 46.2204 53.269 47.2454 53.463C46.9228 54.3089 46.5338 55.0367 46.0311 55.7945C45.8154 56.1215 45.8154 56.1215 45.5953 56.455C45.4453 56.6803 45.2952 56.9055 45.1406 57.1376C44.9952 57.3574 44.8498 57.5772 44.7 57.8036C44.5546 58.0234 44.4092 58.2432 44.2595 58.4696C44.1138 58.6944 43.9682 58.9192 43.8181 59.1508C43.3689 59.8127 43.3689 59.8127 42.8879 60.3979C41.3013 62.4289 41.4282 64.4702 41.4457 66.912C41.4426 67.3195 41.4386 67.7269 41.4339 68.1343C41.4241 69.1234 41.4245 70.112 41.4306 71.1011C40.5511 71.1011 39.6716 71.1011 38.7655 71.1011C38.7721 70.8668 38.7787 70.6325 38.7855 70.3911C39.0282 64.2325 39.0282 64.2325 36.2535 58.8903C35.4994 57.9584 34.8811 56.9378 34.2378 55.9323C34.1097 55.7392 33.9815 55.5461 33.8495 55.3471C33.7318 55.1691 33.6142 54.9912 33.493 54.8079C33.3357 54.5712 33.3357 54.5712 33.1753 54.3297C32.9507 53.9333 32.9507 53.9333 32.9507 53.463Z" fill="#A61922"/>
<path d="M77.2886 53.4629C78.0881 53.4629 78.8876 53.4629 79.7114 53.4629C79.7114 58.585 79.7114 63.7071 79.7114 68.9844C81.7102 68.9844 83.7091 68.9844 85.7685 68.9844C85.7685 69.6829 85.7685 70.3814 85.7685 71.101C82.9701 71.101 80.1717 71.101 77.2886 71.101C77.2886 65.2804 77.2886 59.4598 77.2886 53.4629Z" fill="#D21A23"/>
<path d="M39.0076 11.8369C39.0876 11.8369 39.1676 11.8369 39.2499 11.8369C39.256 11.9811 39.2621 12.1252 39.2683 12.2737C39.2867 12.7056 39.3053 13.1374 39.3241 13.5693C39.3454 14.0636 39.366 14.558 39.3859 15.0524C39.4324 16.156 39.4832 17.2536 39.6048 18.352C39.7937 20.0929 39.7733 21.3032 38.896 22.8589C38.3025 24.0314 37.9543 25.2756 37.5676 26.5241C37.5097 26.7094 37.4518 26.8947 37.3921 27.0856C37.3415 27.2514 37.2908 27.4172 37.2386 27.5881C37.0614 28.0863 36.8377 28.5388 36.5848 29.0047C36.1341 27.039 36.0189 25.1502 36.0245 23.14C36.0206 22.8613 36.0167 22.5825 36.0127 22.2953C36.0116 20.4317 36.2729 18.7928 36.8271 17.0108C36.9064 16.7434 36.9858 16.476 37.0675 16.2005C37.5865 14.6714 38.2197 13.2538 39.0076 11.8369Z" fill="#A01A23"/>
<path fill-rule="evenodd" clip-rule="evenodd" d="M107.576 53.4629C112.594 53.4629 114.028 53.4629 115.321 53.8912C115.838 54.0626 116.333 54.3026 117.025 54.6388C118.452 56.052 118.575 57.1329 118.566 59.0492C118.418 60.343 117.77 60.9721 116.854 61.8598L116.783 61.9292L117.181 62.1616L117.707 62.473L118.226 62.7789C119.258 63.4585 119.643 64.0315 119.933 65.2216C120.119 66.8357 119.956 68.1194 118.963 69.4548C118.098 70.3826 117.31 70.6952 116.056 71.101H107.576V53.4629ZM109.998 63.1053L112.421 63.0318L113.172 62.9994C114.753 62.9763 115.815 63.2676 117.024 64.2812C117.613 65.127 117.559 65.9077 117.398 66.8846C117.147 67.7505 116.636 68.3108 115.858 68.7779C115.226 69.0247 114.749 69.0383 114.068 69.0306L113.419 69.027L112.603 69.0141L109.998 68.9847V63.1053ZM111.967 55.5211L109.998 55.5799V61.2241L112.012 61.2388L112.644 61.2452L113.145 61.247C113.817 61.2519 114.188 61.2011 114.844 60.9889C115.625 60.2303 115.992 59.7906 116.297 58.7547C116.297 57.7775 116.141 57.3239 115.571 56.5206C114.564 55.6984 113.852 55.4768 112.578 55.4951L111.967 55.5211Z" fill="#F51E27"/>
<path d="M39.0078 11.8369C39.0878 11.8369 39.1678 11.8369 39.2501 11.8369C39.2562 11.9811 39.2623 12.1252 39.2685 12.2737C39.2869 12.7056 39.3055 13.1374 39.3243 13.5693C39.3457 14.0636 39.3662 14.558 39.3861 15.0524C39.4326 16.156 39.4834 17.2536 39.605 18.352C39.8299 20.4379 39.5925 21.7679 38.5233 23.5957C38.3559 23.9853 38.1926 24.3767 38.0387 24.7715C37.9588 24.7715 37.8788 24.7715 37.7964 24.7715C37.7663 23.3074 37.7444 21.8435 37.7299 20.3792C37.7238 19.882 37.7156 19.3847 37.705 18.8876C37.6902 18.1694 37.6834 17.4516 37.6781 16.7333C37.6719 16.514 37.6656 16.2946 37.6592 16.0686C37.6585 14.4106 38.1379 13.2543 39.0078 11.8369Z" fill="#DA1E27"/>
<path d="M82.134 15.1299C82.2939 15.1299 82.4538 15.1299 82.6185 15.1299C82.7765 15.6439 82.9326 16.1585 83.088 16.6732C83.2187 17.1029 83.2187 17.1029 83.352 17.5413C84.5235 21.9209 84.2323 27.1181 82.6185 31.3569C82.3787 31.4734 82.3787 31.4734 82.134 31.5921C82.169 31.312 82.2039 31.0319 82.24 30.7433C82.7763 26.129 83.0923 21.3641 82.027 16.8055C81.9017 16.1248 81.8863 15.7667 82.134 15.1299Z" fill="#B91E27"/>
<path d="M83.103 19.1279C83.2629 19.1279 83.4228 19.1279 83.5876 19.1279C84.0111 20.4783 83.8746 21.9199 83.8753 23.317C83.8783 23.613 83.8812 23.909 83.8843 24.214C83.8867 25.6621 83.8759 26.9379 83.3453 28.2997C83.2654 28.2997 83.1854 28.2997 83.103 28.2997C83.103 25.273 83.103 22.2463 83.103 19.1279Z" fill="#DA1D26"/>
<path d="M38.0385 13.7188C38.1185 13.7188 38.1984 13.7188 38.2808 13.7188C38.3275 15.1038 38.3708 16.4889 38.4109 17.8742C38.4251 18.3453 38.4401 18.8163 38.4561 19.2873C38.479 19.965 38.4985 20.6428 38.5174 21.3206C38.5252 21.5306 38.533 21.7406 38.541 21.9569C38.567 23.0078 38.5584 23.817 38.0385 24.772C37.9586 24.772 37.8786 24.772 37.7962 24.772C37.7901 23.2734 37.7858 21.7749 37.7829 20.2763C37.7817 19.7662 37.78 19.2562 37.7779 18.7461C37.775 18.0141 37.7736 17.2821 37.7726 16.55C37.7713 16.321 37.7701 16.0919 37.7688 15.8559C37.7688 15.6441 37.7687 15.4322 37.7687 15.214C37.7682 15.027 37.7676 14.8401 37.7671 14.6474C37.7962 14.1891 37.7962 14.1891 38.0385 13.7188Z" fill="#C31922"/>
<path d="M36.827 17.0107C36.9069 17.0107 36.9869 17.0107 37.0693 17.0107C37.1099 18.438 37.1488 19.8652 37.1861 21.2925C37.199 21.7782 37.2124 22.2639 37.2263 22.7495C37.2462 23.4471 37.2643 24.1446 37.2822 24.8422C37.2888 25.0598 37.2953 25.2774 37.3021 25.5015C37.3069 25.7039 37.3118 25.9063 37.3168 26.1149C37.3241 26.382 37.3241 26.382 37.3315 26.6545C37.3115 27.1233 37.3115 27.1233 37.0693 27.8288C36.9094 27.8288 36.7494 27.8288 36.5847 27.8288C36.5787 26.6661 36.5743 25.5035 36.5714 24.3408C36.5702 23.9462 36.5685 23.5517 36.5664 23.1571C36.5556 21.0923 36.5536 19.0626 36.827 17.0107Z" fill="#9A161F"/>
<path d="M82.6191 26.6533C82.6991 26.6533 82.7791 26.6533 82.8614 26.6533C83.1024 28.502 83.2333 29.896 82.3769 31.592C82.0789 31.0136 82.1424 30.7362 82.2169 30.0983C82.2396 29.8982 82.2622 29.6981 82.2855 29.492C82.3107 29.2828 82.3358 29.0736 82.3617 28.8581C82.3859 28.6471 82.4101 28.4361 82.4351 28.2187C82.4951 27.6968 82.5565 27.175 82.6191 26.6533Z" fill="#993036"/>
<path d="M82.1343 15.1299C82.2942 15.1299 82.4541 15.1299 82.6189 15.1299C82.956 16.2571 82.7852 17.2821 82.6189 18.4223C82.5389 18.4223 82.459 18.4223 82.3766 18.4223C82.2881 18.0506 82.203 17.678 82.1192 17.3052C82.0714 17.0979 82.0236 16.8905 81.9744 16.6769C81.8924 16.0737 81.9377 15.7011 82.1343 15.1299Z" fill="#92232B"/>
</svg>
