<svg width="40" height="40" viewBox="0 0 40 40" fill="none" xmlns="http://www.w3.org/2000/svg">
<path d="M20.0002 35.4291C21.5782 35.4291 22.8574 34.1499 22.8574 32.572C22.8574 30.994 21.5782 29.7148 20.0002 29.7148C18.4223 29.7148 17.1431 30.994 17.1431 32.572C17.1431 34.1499 18.4223 35.4291 20.0002 35.4291Z" fill="black"/>
<path d="M12.1001 24.3334L14.1201 26.352C15.7034 24.8448 17.8051 24.0031 19.9911 24.0007C22.1771 23.9983 24.2806 24.8354 25.8672 26.3391L27.8858 24.3206C25.764 22.28 22.9339 21.1414 19.9901 21.144C17.0463 21.1467 14.2182 22.289 12.1001 24.3334Z" fill="black"/>
<path d="M6.04102 18.2763L8.06102 20.2949C11.2495 17.1779 15.5306 15.4315 19.9895 15.4288C24.4485 15.4261 28.7317 17.1674 31.9239 20.2806L33.9424 18.2621C30.2153 14.6121 25.2055 12.5691 19.9888 12.5718C14.7721 12.5745 9.76443 14.6226 6.04102 18.2763Z" fill="black"/>
<path d="M40 12.2018C34.6699 6.94632 27.4853 4 20 4C12.5147 4 5.33011 6.94632 0 12.2018V12.2347L2.00571 14.2404C6.79759 9.51263 13.2577 6.86073 19.9892 6.85806C26.7208 6.85539 33.1829 9.50215 37.9786 14.2261L40 12.2047V12.2018Z" fill="black"/>
</svg>
