<svg width="40" height="40" viewBox="0 0 40 40" fill="none" xmlns="http://www.w3.org/2000/svg">
<g clip-path="url(#clip0_766_179)">
<path d="M19.2405 24.1962L17.1991 26.7691L19.2361 31.9037L21.2404 29.2374L19.2405 24.1962ZM20.5395 35.189L22.448 40L24.4523 37.3335L22.5437 32.5226L20.5395 35.189ZM36.1978 14.3578L34.2185 16.9911L38.0206 19.2829L40 16.6496L36.1978 14.3578ZM27.9536 13.2148L31.622 15.426L33.6015 12.7928L30.0074 10.6263L27.9536 13.2148ZM24.9736 29.2899L27.4148 33.3924L29.3256 30.8504L26.8843 26.7479L24.9736 29.2899ZM25.2173 23.9466L22.7407 19.7847L20.7844 22.2504L23.3066 26.4886L25.2173 23.9466ZM24.3709 17.7302L27.5105 20.8959L29.4007 18.3811L26.3195 15.2743L24.3709 17.7302ZM29.6567 23.0598L32.7996 26.2288L34.6898 23.714L31.5469 20.5451L29.6567 23.0598ZM28.4743 3.36214L26.2285 6.19257L24.1129 3.52621C22.3214 1.26841 19.8917 0 17.3583 0C14.8248 0 12.3951 1.26841 10.6036 3.52621C10.5743 3.56299 10.546 3.60053 10.5173 3.63775C9.51783 2.75037 8.34421 2.22603 7.12447 2.12196C5.90473 2.01789 4.68575 2.33809 3.60055 3.04761C2.51535 3.75713 1.60564 4.8287 0.970695 6.1454C0.33575 7.46209 -3.03113e-05 8.9733 2.05228e-09 10.5141V36.5123H2.73885V10.5141C2.73883 9.61013 2.93485 8.72335 3.30571 7.94961C3.67658 7.17587 4.20819 6.5446 4.84308 6.12403C5.47797 5.70346 6.19198 5.5096 6.90795 5.56339C7.62392 5.61718 8.31461 5.91658 8.90536 6.42924C7.95784 8.70437 7.61159 11.3014 7.91707 13.8419C8.22254 16.3824 9.16378 18.7335 10.6036 20.5527L12.7191 23.2189L10.6718 25.7993L12.3836 27.9567L30.1861 5.51956L28.4743 3.36214ZM14.465 20.5378L12.5402 18.1119C11.2748 16.4982 10.5675 14.3189 10.5728 12.0501C10.578 9.78126 11.2955 7.60725 12.5684 6.00291C13.8413 4.39857 15.5662 3.49428 17.3664 3.48756C19.1665 3.48083 20.8957 4.37221 22.1761 5.96701L24.1009 8.39303L14.465 20.5378Z" fill="black"/>
</g>
<defs>
<clipPath id="clip0_766_179">
<rect width="40" height="40" fill="white"/>
</clipPath>
</defs>
</svg>
