<svg width="40" height="40" viewBox="0 0 40 40" fill="none" xmlns="http://www.w3.org/2000/svg">
<path d="M13.6846 22.1052V12.421C13.6846 11.6378 13.6846 11.2463 13.7877 10.9284C13.8904 10.6124 14.0664 10.3253 14.3013 10.0903C14.5362 9.85544 14.8234 9.67946 15.1393 9.57679C15.4551 9.47363 15.8488 9.47363 16.6319 9.47363H22.1056C23.7807 9.47363 25.3871 10.139 26.5716 11.3235C27.756 12.5079 28.4214 14.1144 28.4214 15.7894C28.4214 17.4645 27.756 19.0709 26.5716 20.2554C25.3871 21.4398 23.7807 22.1052 22.1056 22.1052H13.6846ZM13.6846 22.1052V32.6315" stroke="black" stroke-width="3" stroke-linecap="round" stroke-linejoin="round"/>
<rect x="2.5" y="2.5" width="35" height="35" rx="6.5" stroke="black" stroke-width="3"/>
</svg>
