<svg width="40" height="40" viewBox="0 0 40 40" fill="none" xmlns="http://www.w3.org/2000/svg">
<g clip-path="url(#clip0_766_185)">
<path d="M10.1818 18.2979C10.1818 18.7187 10.0752 19.13 9.8754 19.4799C9.67562 19.8298 9.39165 20.1025 9.05942 20.2636C8.7272 20.4246 8.36162 20.4667 8.00893 20.3846C7.65623 20.3026 7.33227 20.0999 7.07799 19.8024C6.82371 19.5048 6.65055 19.1257 6.58039 18.713C6.51024 18.3002 6.54624 17.8724 6.68386 17.4837C6.82147 17.0949 7.05451 16.7626 7.35351 16.5288C7.65251 16.295 8.00403 16.1702 8.36364 16.1702C8.84585 16.1702 9.30831 16.3944 9.64929 16.7934C9.99026 17.1924 10.1818 17.7336 10.1818 18.2979ZM40 18.2979V37.0213C40 37.8113 39.7318 38.5689 39.2545 39.1276C38.7771 39.6862 38.1296 40 37.4545 40H17.0909C16.4158 40 15.7684 39.6862 15.291 39.1276C14.8136 38.5689 14.5455 37.8113 14.5455 37.0213V30.7404C13.0273 34.3596 10.8364 36.5957 8.36364 36.5957C3.67455 36.5957 0 28.5574 0 18.2979C0 8.0383 3.67455 0 8.36364 0H31.6364C36.3255 0 40 8.0383 40 18.2979ZM14.5455 18.2979C14.5455 8.88085 11.3491 2.55319 8.36364 2.55319C5.37818 2.55319 2.18182 8.88085 2.18182 18.2979C2.18182 27.7149 5.37818 34.0426 8.36364 34.0426C11.3491 34.0426 14.5455 27.717 14.5455 18.2979ZM37.8182 37.0213V19.5745H34.5455C34.2561 19.5745 33.9787 19.44 33.7741 19.2006C33.5695 18.9612 33.4545 18.6364 33.4545 18.2979C33.4545 17.9593 33.5695 17.6346 33.7741 17.3952C33.9787 17.1558 34.2561 17.0213 34.5455 17.0213H37.7964C37.5218 8.31489 34.4855 2.55319 31.6364 2.55319H12.6836C14.9691 5.51489 16.5182 10.7957 16.7055 17.0213H20C20.2893 17.0213 20.5668 17.1558 20.7714 17.3952C20.976 17.6346 21.0909 17.9593 21.0909 18.2979C21.0909 18.6364 20.976 18.9612 20.7714 19.2006C20.5668 19.44 20.2893 19.5745 20 19.5745H16.7273V37.0213C16.7273 37.1341 16.7656 37.2424 16.8338 37.3222C16.902 37.402 16.9945 37.4468 17.0909 37.4468H37.4545C37.551 37.4468 37.6435 37.402 37.7117 37.3222C37.7799 37.2424 37.8182 37.1341 37.8182 37.0213ZM28.7273 17.0213H25.8182C25.5289 17.0213 25.2514 17.1558 25.0468 17.3952C24.8422 17.6346 24.7273 17.9593 24.7273 18.2979C24.7273 18.6364 24.8422 18.9612 25.0468 19.2006C25.2514 19.44 25.5289 19.5745 25.8182 19.5745H28.7273C29.0166 19.5745 29.2941 19.44 29.4987 19.2006C29.7032 18.9612 29.8182 18.6364 29.8182 18.2979C29.8182 17.9593 29.7032 17.6346 29.4987 17.3952C29.2941 17.1558 29.0166 17.0213 28.7273 17.0213Z" fill="black"/>
</g>
<defs>
<clipPath id="clip0_766_185">
<rect width="40" height="40" fill="white"/>
</clipPath>
</defs>
</svg>
