<svg width="40" height="40" viewBox="0 0 40 40" fill="none" xmlns="http://www.w3.org/2000/svg">
<g clip-path="url(#clip0_766_164)">
<path d="M36.5507 23.722H36.5517C37.2998 23.722 38.0414 24.0804 38.6048 24.7612C39.1705 25.4447 39.5 26.3888 39.5 27.3887V39.0553C39.5 39.1711 39.4611 39.2674 39.4128 39.3258C39.3667 39.3815 39.3268 39.3887 39.3103 39.3887H28.2759C28.2594 39.3887 28.2195 39.3815 28.1734 39.3258C28.1251 39.2674 28.0862 39.1711 28.0862 39.0553V32.3887C28.0862 31.6204 27.8344 30.8689 27.3654 30.3021C26.8941 29.7327 26.2324 29.3887 25.5172 29.3887C24.8021 29.3887 24.1403 29.7327 23.6691 30.3021C23.2 30.8689 22.9483 31.6204 22.9483 32.3887V39.0553C22.9483 39.1711 22.9094 39.2674 22.8611 39.3258C22.815 39.3815 22.7751 39.3887 22.7586 39.3887H17.2414C17.2249 39.3887 17.185 39.3815 17.1389 39.3258C17.0906 39.2674 17.0517 39.1711 17.0517 39.0553V32.3887C17.0517 31.6204 16.8 30.8689 16.3309 30.3021C15.8597 29.7327 15.1979 29.3887 14.4828 29.3887C13.7676 29.3887 13.1059 29.7327 12.6346 30.3021C12.1656 30.8689 11.9138 31.6204 11.9138 32.3887V39.0553C11.9138 39.1711 11.8749 39.2674 11.8266 39.3258C11.7805 39.3815 11.7406 39.3887 11.7241 39.3887H0.689655C0.673191 39.3887 0.633262 39.3815 0.587192 39.3258C0.538878 39.2674 0.5 39.1711 0.5 39.0553V27.3887C0.5 26.6902 0.661222 26.0103 0.960149 25.4258C1.25905 24.8414 1.67975 24.3828 2.16472 24.0898C2.64799 23.7979 3.17992 23.6788 3.70379 23.7359C4.22843 23.7931 4.74092 24.0266 5.18148 24.4258L6.01724 25.1832V24.0553V22.3887C6.01724 14.3888 10.7993 10.5244 14.7959 7.3139L14.7966 7.31331L14.8372 7.28061C16.1059 6.25762 17.3334 5.26783 18.2411 4.23996C19.1626 3.19661 19.8103 2.05328 19.8103 0.722005C19.8103 0.606213 19.8492 0.509914 19.8975 0.451534C19.9436 0.395869 19.9835 0.388672 20 0.388672C20.0165 0.388672 20.0564 0.395869 20.1025 0.451534C20.1508 0.509912 20.1897 0.606211 20.1897 0.722005C20.1897 2.05323 20.8373 3.19706 21.7588 4.2407C22.6696 5.27221 23.9021 6.26503 25.1753 7.29065L25.2036 7.31347L25.2041 7.3139C29.2007 10.5244 33.9828 14.3888 33.9828 22.3887V24.0553V25.1859L34.8192 24.4252C35.3312 23.9596 35.9396 23.7208 36.5507 23.722ZM14.9296 7.92208L14.9291 7.92246L14.868 7.97176C11.1279 10.9893 6.75178 14.5199 6.41953 21.5317L6.39471 22.0553H6.91897H33.081H33.6053L33.5805 21.5317C33.2482 14.5199 28.8721 10.9893 25.132 7.97176L25.0709 7.92246L25.0704 7.92208C23.0469 6.29348 21.3302 4.90105 20.4418 3.2253L20 2.39205L19.5582 3.2253C18.6698 4.90105 16.9531 6.29348 14.9296 7.92208ZM5.51724 38.722H6.01724V38.222V27.3887C6.01724 26.6204 5.76548 25.8689 5.29645 25.3021C4.82518 24.7327 4.16344 24.3887 3.44828 24.3887C2.73311 24.3887 2.07137 24.7327 1.6001 25.3021C1.13107 25.8689 0.87931 26.6204 0.87931 27.3887V38.222V38.722H1.37931H5.51724ZM22.069 38.722H22.569V38.222V32.3887C22.569 31.3888 22.8985 30.4447 23.4641 29.7612C24.0275 29.0804 24.7691 28.722 25.5172 28.722C26.2653 28.722 27.0069 29.0804 27.5703 29.7612C28.136 30.4447 28.4655 31.3888 28.4655 32.3887V38.222V38.722H28.9655H33.1035H33.6035V38.222V23.222V22.722H33.1035H6.89655H6.39655V23.222V38.222V38.722H6.89655H11.0345H11.5345V38.222V32.3887C11.5345 31.3888 11.864 30.4447 12.4297 29.7612C12.9931 29.0804 13.7347 28.722 14.4828 28.722C15.2309 28.722 15.9725 29.0804 16.5359 29.7612C17.1015 30.4447 17.431 31.3888 17.431 32.3887V38.222V38.722H17.931H22.069ZM38.6207 38.722H39.1207V38.222V27.3887C39.1207 26.6204 38.8689 25.8689 38.3999 25.3021C37.9286 24.7327 37.2669 24.3887 36.5517 24.3887C35.8366 24.3887 35.1748 24.7327 34.7035 25.3021C34.2345 25.8689 33.9828 26.6204 33.9828 27.3887V38.222V38.722H34.4828H38.6207Z" stroke="black"/>
</g>
<defs>
<clipPath id="clip0_766_164">
<rect width="40" height="40" fill="white"/>
</clipPath>
</defs>
</svg>
