<svg width="26" height="26" viewBox="0 0 26 26" fill="none" xmlns="http://www.w3.org/2000/svg">
<path d="M17.1259 24.3552C17.4384 24.0427 17.7509 23.7302 18.0658 23.4152C18.7836 22.6975 19.4989 21.9821 20.2167 21.2644C21.0053 20.4758 21.7938 19.6872 22.5824 18.8986C23.1097 18.3713 23.6371 17.844 24.1644 17.3166C24.3622 17.1189 24.5599 16.926 24.6967 16.677C25.163 15.8371 25.0043 14.7995 24.3304 14.1208C23.9886 13.779 23.6469 13.4372 23.3051 13.0954C22.619 12.4094 21.933 11.7234 21.247 11.0373C20.4437 10.2341 19.6381 9.42843 18.8348 8.62521C18.1293 7.91964 17.4262 7.21652 16.7206 6.51095C16.3422 6.13253 15.9637 5.75412 15.5853 5.3757C15.5682 5.35861 15.5512 5.34152 15.5341 5.32443C15.1556 4.94601 14.5331 4.95822 14.1522 5.32443C14.1278 5.34884 14.101 5.37081 14.0741 5.39523C14.14 5.34396 14.2059 5.29269 14.2719 5.24142C14.2084 5.29025 14.1425 5.32931 14.0668 5.36349C14.1449 5.33175 14.223 5.29757 14.3012 5.26583C14.2181 5.30001 14.1327 5.32199 14.0448 5.33419C14.1303 5.32199 14.2181 5.30978 14.3036 5.30001C14.2255 5.30734 14.1498 5.30734 14.0717 5.30001C14.1571 5.31222 14.245 5.32443 14.3304 5.33419C14.2401 5.32199 14.1547 5.30001 14.0717 5.26583C14.1498 5.29757 14.2279 5.33175 14.306 5.36349C14.2328 5.33175 14.1644 5.29269 14.0985 5.2463C14.1644 5.29757 14.2303 5.34884 14.2963 5.40011C14.2303 5.34884 14.1718 5.29269 14.118 5.22677C14.1693 5.29269 14.2206 5.35861 14.2719 5.42453C14.2206 5.35861 14.1815 5.29025 14.1473 5.21456C14.1791 5.29269 14.2133 5.37081 14.245 5.44894C14.2157 5.37326 14.1962 5.30001 14.184 5.21945C14.1962 5.3049 14.2084 5.39279 14.2181 5.47824C14.2084 5.40011 14.2084 5.32199 14.2181 5.24386C14.2059 5.32931 14.1937 5.4172 14.184 5.50265C14.1962 5.42208 14.2157 5.34884 14.245 5.27316C14.2133 5.35128 14.1791 5.42941 14.1473 5.50753C14.1791 5.43185 14.2181 5.36105 14.267 5.29269C14.2157 5.35861 14.1644 5.42453 14.1132 5.49044C14.1425 5.45138 14.1742 5.41476 14.2084 5.38058C14.5746 5.00216 14.5868 4.3796 14.2084 3.99874C13.7592 3.54953 13.3099 3.10031 12.8607 2.65109C12.5873 2.38009 12.3163 2.1091 12.0453 1.8381C11.7108 1.50363 11.3495 1.19845 10.871 1.09103C10.1386 0.927455 9.38904 1.13253 8.85437 1.66476C8.76648 1.75265 8.67859 1.84054 8.58826 1.93087C8.16834 2.35079 7.74842 2.77072 7.32849 3.19064C6.72058 3.79855 6.11512 4.40402 5.50721 5.01193C4.87732 5.64181 4.245 6.27413 3.61512 6.90402C3.13172 7.38742 2.64832 7.87081 2.16736 8.35177C1.87439 8.64474 1.5326 8.93527 1.32019 9.29415C0.829472 10.1169 0.988163 11.1887 1.65467 11.8625C1.83289 12.0432 2.01111 12.219 2.19178 12.3996C2.75086 12.9587 3.3075 13.5153 3.86658 14.0744C3.90564 14.1135 3.94471 14.1526 3.98133 14.1892C4.36219 14.57 4.97986 14.5529 5.36316 14.1892C5.39002 14.1648 5.41443 14.1403 5.44373 14.1184C5.37781 14.1696 5.31189 14.2209 5.24598 14.2722C5.31189 14.2234 5.37781 14.1818 5.4535 14.1501C5.37537 14.1818 5.29725 14.216 5.21912 14.2478C5.30213 14.2136 5.38758 14.1916 5.47791 14.177C5.39246 14.1892 5.30457 14.2014 5.21912 14.2111C5.29725 14.2038 5.37293 14.2038 5.45105 14.2111C5.3656 14.1989 5.27771 14.1867 5.19226 14.177C5.2826 14.1892 5.36805 14.2136 5.45105 14.2478C5.37293 14.216 5.2948 14.1818 5.21668 14.1501C5.28992 14.1843 5.35828 14.2258 5.42176 14.2746C5.35584 14.2234 5.28992 14.1721 5.224 14.1208C5.28016 14.1672 5.32898 14.216 5.37537 14.2722C5.3241 14.2063 5.27283 14.1403 5.22156 14.0744C5.27039 14.1403 5.31189 14.2063 5.34607 14.2795C5.31433 14.2014 5.28016 14.1233 5.24842 14.0451C5.2826 14.1281 5.30701 14.2136 5.31922 14.3039C5.30701 14.2185 5.2948 14.1306 5.28504 14.0451C5.2948 14.1233 5.2948 14.1989 5.28504 14.2771C5.29725 14.1916 5.30945 14.1037 5.31922 14.0183C5.30701 14.1086 5.2826 14.1941 5.24842 14.2771C5.28016 14.1989 5.31433 14.1208 5.34607 14.0427C5.31189 14.1159 5.27283 14.1843 5.224 14.2502C5.27527 14.1843 5.32654 14.1184 5.37781 14.0525C5.35584 14.0793 5.33142 14.1062 5.30701 14.133C4.94324 14.5163 4.92615 15.1316 5.30701 15.5149C5.64392 15.8518 5.9784 16.1862 6.31531 16.5232C7.10389 17.3117 7.89246 18.1003 8.68103 18.8889C9.59168 19.7995 10.5023 20.7102 11.413 21.6208C12.121 22.3288 12.829 23.0368 13.537 23.7448C13.7128 23.9206 13.891 24.0988 14.0668 24.2746C14.0936 24.3015 14.118 24.3259 14.1449 24.3527C14.6796 24.8752 15.434 25.0778 16.1591 24.9045C16.5228 24.8191 16.8622 24.6115 17.1259 24.3552C17.4945 23.9987 17.5116 23.3274 17.1259 22.9734C16.7303 22.612 16.1371 22.5925 15.744 22.9734C15.7098 23.0075 15.6757 23.0368 15.6366 23.0686C15.7025 23.0173 15.7684 22.966 15.8344 22.9148C15.7513 22.9782 15.6635 23.0295 15.5658 23.0686C15.6439 23.0368 15.722 23.0027 15.8002 22.9709C15.7147 23.0027 15.6293 23.0271 15.5414 23.0417C15.6268 23.0295 15.7147 23.0173 15.8002 23.0075C15.6879 23.0222 15.578 23.0222 15.4681 23.0075C15.5536 23.0197 15.6415 23.0319 15.7269 23.0417C15.6366 23.0271 15.5512 23.0051 15.4681 22.9709C15.5463 23.0027 15.6244 23.0368 15.7025 23.0686C15.6073 23.0271 15.5194 22.9758 15.434 22.9148C15.4999 22.966 15.5658 23.0173 15.6317 23.0686C15.517 22.9758 15.4144 22.8635 15.3095 22.7585C15.0995 22.5485 14.8871 22.3361 14.6771 22.1262C13.9764 21.4255 13.2758 20.7248 12.5726 20.0217C11.7181 19.1672 10.8637 18.3127 10.0092 17.4582C9.26697 16.716 8.52234 15.9714 7.78015 15.2292C7.42127 14.8703 7.06726 14.5017 6.69861 14.1477C6.69373 14.1428 6.68885 14.1379 6.68396 14.133C6.68396 14.5944 6.68396 15.0534 6.68396 15.5149C7.03064 15.1486 7.2406 14.6701 7.2406 14.1623C7.23816 13.6618 7.03553 13.1638 6.67908 12.8122C6.32508 12.4607 5.84168 12.2629 5.34607 12.2507C4.83338 12.2409 4.3451 12.4582 3.97644 12.8073C4.43787 12.8073 4.89685 12.8073 5.35828 12.8073C4.66492 12.114 3.97156 11.4206 3.2782 10.7273C3.16101 10.6101 3.03162 10.4953 2.92664 10.3635C2.97791 10.4294 3.02918 10.4953 3.08045 10.5612C3.01697 10.4782 2.9657 10.3903 2.92664 10.2927C2.95838 10.3708 2.99256 10.4489 3.0243 10.5271C2.99256 10.4416 2.96814 10.3562 2.9535 10.2683C2.9657 10.3537 2.97791 10.4416 2.98767 10.5271C2.97303 10.4148 2.97303 10.3049 2.98767 10.195C2.97547 10.2805 2.96326 10.3684 2.9535 10.4538C2.96814 10.3635 2.99012 10.278 3.0243 10.195C2.99256 10.2732 2.95838 10.3513 2.92664 10.4294C2.96814 10.3342 3.01941 10.2463 3.08045 10.1609C3.02918 10.2268 2.97791 10.2927 2.92664 10.3586C3.00721 10.2585 3.10242 10.1706 3.19275 10.0778C3.36609 9.90451 3.53943 9.73117 3.71277 9.55783C4.29383 8.97677 4.87244 8.39816 5.4535 7.8171C6.15662 7.11398 6.85974 6.41085 7.56287 5.70773C8.16834 5.10226 8.77381 4.49679 9.37928 3.89132C9.66492 3.60568 9.95056 3.31515 10.2387 3.03195C10.2753 2.99533 10.3119 2.96359 10.3534 2.93185C10.2875 2.98312 10.2216 3.03439 10.1556 3.08566C10.2387 3.02218 10.3265 2.97091 10.4242 2.93185C10.3461 2.96359 10.2679 2.99777 10.1898 3.02951C10.2753 2.99777 10.3607 2.97335 10.4486 2.9587C10.3632 2.97091 10.2753 2.98312 10.1898 2.99288C10.3021 2.97824 10.412 2.97824 10.5219 2.99288C10.4364 2.98068 10.3485 2.96847 10.2631 2.9587C10.3534 2.97335 10.4388 2.99533 10.5219 3.02951C10.4437 2.99777 10.3656 2.96359 10.2875 2.93185C10.3827 2.97335 10.4706 3.02462 10.556 3.08566C10.4901 3.03439 10.4242 2.98312 10.3583 2.93185C10.4681 3.01974 10.5658 3.12716 10.6683 3.22726C10.8563 3.41525 11.0419 3.60079 11.2299 3.78878C11.6595 4.21847 12.0892 4.64816 12.5189 5.07785C12.619 5.17794 12.7216 5.28048 12.8217 5.38058C12.8217 4.91915 12.8217 4.46017 12.8217 3.99874C12.4677 4.36495 12.2528 4.84835 12.2528 5.36105C12.2528 5.8591 12.4628 6.37423 12.8314 6.71359C13.1976 7.05294 13.6664 7.2507 14.1669 7.25802C14.6771 7.26779 15.1654 7.05538 15.5292 6.70626C15.0678 6.70626 14.6088 6.70626 14.1473 6.70626C14.4452 7.00412 14.7406 7.29953 15.0385 7.59738C15.744 8.30294 16.4496 9.00851 17.1576 9.71652C18.0121 10.571 18.8666 11.4255 19.7186 12.2776C20.4511 13.01 21.1859 13.7448 21.9183 14.4773C22.265 14.8239 22.6141 15.1682 22.9584 15.5173C22.995 15.5539 23.0292 15.593 23.0609 15.632C23.0096 15.5661 22.9584 15.5002 22.9071 15.4343C22.9706 15.5173 23.0219 15.6052 23.0609 15.7028C23.0292 15.6247 22.995 15.5466 22.9633 15.4685C22.995 15.5539 23.0194 15.6394 23.0341 15.7273C23.0219 15.6418 23.0096 15.5539 22.9999 15.4685C23.0145 15.5808 23.0145 15.6906 22.9999 15.8005C23.0121 15.7151 23.0243 15.6272 23.0341 15.5417C23.0194 15.632 22.9974 15.7175 22.9633 15.8005C22.995 15.7224 23.0292 15.6443 23.0609 15.5661C23.0194 15.6613 22.9681 15.7492 22.9071 15.8347C22.9584 15.7688 23.0096 15.7028 23.0609 15.6369C22.8314 15.9226 22.5409 16.1692 22.2821 16.4279C21.7084 17.0017 21.1371 17.573 20.5634 18.1467C19.8627 18.8474 19.1644 19.5456 18.4637 20.2463C17.8558 20.8542 17.2479 21.4621 16.64 22.07C16.3446 22.3654 16.0419 22.6584 15.7489 22.9611C15.744 22.966 15.7391 22.9709 15.7367 22.9734C15.3754 23.3347 15.3485 23.9987 15.7367 24.3552C16.1346 24.7116 16.7401 24.7409 17.1259 24.3552Z" fill="#A70000"/>
<path d="M10.2657 14.3407C10.859 14.934 11.4547 15.5297 12.0479 16.123C12.9952 17.0702 13.9425 18.0175 14.8922 18.9672C15.1095 19.1845 15.3292 19.4042 15.5465 19.6215C15.9078 19.9828 16.5719 20.0097 16.9283 19.6215C17.2872 19.2309 17.314 18.6254 16.9283 18.2397C16.335 17.6464 15.7393 17.0507 15.1461 16.4574C14.1964 15.5102 13.2491 14.5629 12.2994 13.6132C12.0821 13.3959 11.8624 13.1762 11.6451 12.9589C11.2838 12.5976 10.6197 12.5707 10.2633 12.9589C9.90681 13.3495 9.87996 13.955 10.2657 14.3407ZM17.8121 13.7377C17.4215 13.3446 17.0284 12.954 16.6378 12.5609C16.0152 11.9384 15.3951 11.3183 14.7725 10.6957C14.6285 10.5517 14.4845 10.4076 14.3404 10.2636C13.9791 9.90225 13.315 9.8754 12.9586 10.2636C12.5997 10.6542 12.5728 11.2597 12.9586 11.6454C13.3516 12.0385 13.7423 12.4291 14.1353 12.8222C14.7579 13.4447 15.378 14.0648 16.0006 14.6874C16.1446 14.8314 16.2886 14.9755 16.4327 15.1195C16.794 15.4809 17.4581 15.5077 17.8145 15.1195C18.171 14.7289 18.1978 14.1234 17.8121 13.7377Z" fill="#A70000"/>
<path d="M8.8129 12.0674C9.17911 11.7012 9.54776 11.3325 9.91397 10.9663C10.495 10.3853 11.0785 9.80179 11.6596 9.22073C11.7939 9.08646 11.9306 8.94974 12.0648 8.81546C12.4262 8.45413 12.453 7.79007 12.0648 7.43362C11.6742 7.07474 11.0688 7.04788 10.683 7.43362C10.3168 7.79983 9.94815 8.16849 9.58194 8.5347C9.00088 9.11575 8.41739 9.69925 7.83633 10.2803C7.70206 10.4146 7.56534 10.5513 7.43106 10.6856C7.06973 11.0469 7.04288 11.711 7.43106 12.0674C7.82168 12.4239 8.42715 12.4532 8.8129 12.0674Z" fill="#A70000"/>
</svg>
