<svg width="20" height="21" viewBox="0 0 20 21" fill="none" xmlns="http://www.w3.org/2000/svg">
<path d="M9.49787 8.01849C7.93707 8.01849 6.66333 9.29222 6.66333 10.853C6.66333 12.4138 7.93707 13.6876 9.49787 13.6876C11.0587 13.6876 12.3324 12.4138 12.3324 10.853C12.3324 9.29222 11.0587 8.01849 9.49787 8.01849ZM17.9994 10.853C17.9994 9.67923 18.01 8.51607 17.9441 7.34441C17.8782 5.98349 17.5677 4.77567 16.5725 3.7805C15.5752 2.7832 14.3695 2.47487 13.0086 2.40895C11.8348 2.34303 10.6717 2.35366 9.5 2.35366C8.32621 2.35366 7.16305 2.34303 5.99138 2.40895C4.63046 2.47487 3.42264 2.78533 2.42747 3.7805C1.43017 4.7778 1.12184 5.98349 1.05592 7.34441C0.99 8.5182 1.00063 9.68136 1.00063 10.853C1.00063 12.0247 0.99 13.19 1.05592 14.3616C1.12184 15.7226 1.4323 16.9304 2.42747 17.9256C3.42477 18.9229 4.63046 19.2312 5.99138 19.2971C7.16517 19.363 8.32833 19.3524 9.5 19.3524C10.6738 19.3524 11.837 19.363 13.0086 19.2971C14.3695 19.2312 15.5774 18.9207 16.5725 17.9256C17.5698 16.9283 17.8782 15.7226 17.9441 14.3616C18.0121 13.19 17.9994 12.0268 17.9994 10.853ZM9.49787 15.2143C7.08437 15.2143 5.13655 13.2665 5.13655 10.853C5.13655 8.43952 7.08437 6.49171 9.49787 6.49171C11.9114 6.49171 13.8592 8.43952 13.8592 10.853C13.8592 13.2665 11.9114 15.2143 9.49787 15.2143ZM14.0378 7.33165C13.4743 7.33165 13.0193 6.87659 13.0193 6.31308C13.0193 5.74958 13.4743 5.29452 14.0378 5.29452C14.6013 5.29452 15.0564 5.74958 15.0564 6.31308C15.0565 6.44689 15.0303 6.57942 14.9792 6.70307C14.9281 6.82672 14.853 6.93908 14.7584 7.03369C14.6638 7.12831 14.5515 7.20333 14.4278 7.25446C14.3041 7.30558 14.1716 7.33182 14.0378 7.33165Z" fill="black"/>
</svg>
