<svg width="84" height="50" viewBox="0 0 84 50" fill="none" xmlns="http://www.w3.org/2000/svg">
<path d="M48.4423 6.4954C48.6927 6.59101 48.9397 6.69528 49.1843 6.80407C49.3612 6.86837 49.5381 6.93267 49.7203 6.99892C52.2751 7.96836 54.8807 9.70097 56.4772 11.9075C57.6175 14.6209 57.09 18.2658 56.8376 21.1059C56.8276 21.276 56.8176 21.446 56.8074 21.6212C56.7298 22.3227 56.6682 22.7702 56.115 23.2544C55.6804 23.5152 55.2493 23.7272 54.7812 23.9251C54.587 24.0106 54.3929 24.0962 54.1929 24.1843C53.6552 24.3759 53.1175 24.5662 52.5763 24.7482C52.443 24.7937 52.3096 24.8391 52.1722 24.8859C49.9309 25.5908 47.642 26.0351 45.2835 25.9006C44.2804 24.0859 43.3033 22.2651 42.4256 20.3897C42.2807 20.0809 42.1347 19.7726 41.988 19.4646C41.7236 18.9084 41.4627 18.3508 41.2024 17.7928C41.0747 17.5251 41.0747 17.5251 40.9444 17.2519C40.8667 17.0832 40.789 16.9146 40.7089 16.7408C40.6385 16.5905 40.568 16.4402 40.4955 16.2853C40.3088 15.6744 40.4317 15.2569 40.6963 14.6874C41.8549 12.7804 43.4098 11.091 44.9476 9.46509C45.2679 9.1253 45.5785 8.7791 45.8877 8.42975C45.9826 8.32619 46.0775 8.22263 46.1752 8.11593C46.3874 7.88317 46.5944 7.64593 46.798 7.40598C47.6477 6.4688 47.6477 6.4688 48.4423 6.4954Z" fill="#C21922"/>
<path d="M29.1601 15.0137C30.1945 15.0165 31.2031 15.0844 32.2297 15.2042C32.3852 15.2216 32.5406 15.2391 32.7008 15.2572C33.0269 15.2941 33.353 15.3314 33.679 15.3693C34.1734 15.4265 34.668 15.482 35.1626 15.5373C35.4817 15.5736 35.8008 15.61 36.1199 15.6466C36.3381 15.671 36.3381 15.671 36.5607 15.696C36.9818 15.7453 37.4014 15.8006 37.8213 15.8588C38.0517 15.8882 38.0517 15.8882 38.2868 15.9183C39.4261 16.0932 39.4261 16.0932 39.8461 16.5301C39.9013 16.6714 39.9566 16.8128 40.0135 16.9584C40.0809 17.1195 40.1483 17.2806 40.2178 17.4465C40.317 17.7098 40.317 17.7098 40.4183 17.9784C40.5729 18.3522 40.7282 18.7258 40.884 19.0992C40.964 19.2955 41.044 19.4918 41.1264 19.694C41.5156 20.6334 41.961 21.5481 42.4045 22.4643C42.5452 22.7551 42.6846 23.0465 42.824 23.3379C43.3433 24.4209 43.8781 25.4946 44.4357 26.5595C42.6697 28.2332 40.8551 29.7841 38.8389 31.169C38.6008 31.3396 38.6008 31.3396 38.3579 31.5137C37.7305 31.8999 37.3679 32.0343 36.6281 31.8956C36.0373 31.692 35.496 31.4461 34.938 31.169C34.7535 31.0824 34.569 30.9958 34.3789 30.9066C32.4852 29.9743 30.8354 28.834 29.5108 27.218C29.391 27.0847 29.2712 26.9514 29.1477 26.8141C26.586 23.9215 26.586 23.9215 26.4897 22.2483C26.5944 20.9804 27.0076 19.7306 27.3712 18.5135C27.4575 18.2241 27.5399 17.9335 27.6213 17.6427C28.3606 15.0673 28.3606 15.0673 29.1601 15.0137Z" fill="#BA1922"/>
<path d="M40.0367 0.00800325C41.6255 -0.109467 42.9584 1.09019 44.0965 2.03045C45.0555 2.85079 45.7763 3.79095 46.4709 4.82909C46.5733 4.96787 46.6756 5.10666 46.781 5.24965C46.9797 5.65221 46.9797 5.65221 46.8757 5.99947C46.6371 6.31527 46.3934 6.57715 46.0999 6.84575C45.5633 7.35158 45.0688 7.87849 44.5815 8.42898C44.3682 8.66649 44.1507 8.90053 43.9296 9.13121C42.3398 10.7926 40.824 12.6116 39.6789 14.5934C39.5173 14.8712 39.5173 14.8712 39.3477 15.0359C37.9914 15.1007 36.6817 14.9109 35.3408 14.7272C35.1264 14.6985 34.9119 14.6699 34.6909 14.6404C34.258 14.5825 33.8251 14.5244 33.3923 14.4659C31.8737 14.2619 30.3541 14.0644 28.8324 13.8835C27.6764 7.5902 27.6764 7.5902 28.8821 5.70945C29.2801 5.2378 29.7371 4.87026 30.2522 4.52403C30.6731 4.23629 31.0376 3.88835 31.4188 3.55324C33.9229 1.65537 36.8925 0.429958 40.0367 0.00800325Z" fill="#B71922"/>
<path d="M56.3078 24.0898C56.4757 24.1713 56.4757 24.1713 56.647 24.2545C55.7911 25.695 54.7735 26.8517 53.5942 28.0409C53.4952 28.1493 53.3961 28.2577 53.2941 28.3695C51.4504 30.3312 48.7037 31.4347 46.1317 32.1565C46.0199 32.1883 45.9081 32.2202 45.7929 32.253C44.6325 32.5451 43.4868 32.5286 42.2945 32.5166C42.0929 32.5165 41.8914 32.5164 41.6837 32.5163C40.7191 32.5116 39.7885 32.4901 38.8389 32.3211C39.2926 31.9661 39.7493 31.6161 40.2116 31.2716C42.5892 29.5155 42.5892 29.5155 44.6371 27.4216C45.3568 26.8656 46.0723 26.8835 46.9691 26.8165C50.1453 26.5023 53.2089 25.7094 56.0203 24.2107C56.1152 24.1708 56.2101 24.1309 56.3078 24.0898Z" fill="#BC1A23"/>
<path d="M62.2439 37.4248C62.8595 37.4248 63.4752 37.4248 64.1095 37.4248C64.112 37.6831 64.1145 37.9414 64.117 38.2075C64.1269 39.1681 64.14 40.1287 64.154 41.0893C64.1597 41.5046 64.1644 41.9199 64.1683 42.3352C64.174 42.9331 64.1828 43.5309 64.1923 44.1288C64.1934 44.3137 64.1945 44.4986 64.1956 44.6891C64.2193 45.9194 64.3538 47.0455 65.2967 47.9608C66.1856 48.3621 67.0956 48.4506 68.0355 48.1885C68.8409 47.8601 69.1686 47.5102 69.5596 46.7263C69.8471 45.9196 69.8088 45.0868 69.8097 44.2413C69.8125 44.0459 69.8153 43.8504 69.8182 43.649C69.8264 43.0285 69.8301 42.408 69.8336 41.7874C69.8383 41.3651 69.8434 40.9428 69.8488 40.5205C69.8613 39.4886 69.8697 38.4568 69.876 37.4248C70.4916 37.4248 71.1073 37.4248 71.7416 37.4248C71.7542 38.6637 71.7634 39.9026 71.7695 41.1415C71.7721 41.5626 71.7755 41.9836 71.78 42.4047C71.7862 43.0116 71.789 43.6184 71.7913 44.2253C71.7939 44.4121 71.7965 44.5989 71.7992 44.7913C71.7996 46.3818 71.519 47.7476 70.3848 48.9486C69.0091 50.0465 67.3473 50.0868 65.6359 49.9363C64.4916 49.6636 63.6368 49.0244 62.9223 48.1255C62.3832 47.2232 62.2221 46.2855 62.2246 45.2556C62.2247 45.0809 62.2247 44.9063 62.2247 44.7264C62.2256 44.5398 62.2264 44.3532 62.2273 44.1609C62.2276 43.9684 62.2278 43.7759 62.2281 43.5776C62.229 42.9637 62.2311 42.3498 62.2333 41.7359C62.2341 41.3193 62.2349 40.9027 62.2356 40.4861C62.2375 39.4657 62.2404 38.4452 62.2439 37.4248Z" fill="#DF1F27"/>
<path d="M48.845 37.8654C49.9772 38.593 50.7432 39.3924 51.3891 40.5528C50.859 40.9881 50.3565 41.1856 49.693 41.3759C49.6094 41.2476 49.6094 41.2476 49.5241 41.1167C48.8068 40.0959 47.9788 39.4309 46.7224 39.1354C45.37 38.929 44.2937 39.0944 43.0786 39.7296C42.1967 40.4368 41.5502 41.2535 41.3826 42.3636C41.2055 44.7255 41.2055 44.7255 42.2306 46.8085C43.1865 47.7009 44.1467 48.1714 45.4848 48.1873C46.7691 48.1605 47.79 47.9696 48.7424 47.0934C49.0755 46.7338 49.3905 46.3694 49.693 45.9854C50.1968 46.1484 50.7005 46.3114 51.2195 46.4793C51.0615 47.5849 50.3604 48.2197 49.4983 48.912C47.9016 50.0241 46.1923 50.0934 44.2658 49.9364C42.6995 49.6023 41.4211 48.8655 40.4922 47.5905C40.3317 47.3327 40.1761 47.072 40.0258 46.8085C39.9202 46.6347 39.9202 46.6347 39.8124 46.4574C39.0475 44.9673 39.1087 43.0446 39.4852 41.4511C40.1158 39.8082 41.2977 38.5247 42.9017 37.7278C44.5424 37.0731 47.2702 37.0874 48.845 37.8654Z" fill="#BF1B24"/>
<path d="M7.99446 38.148C8.63631 38.6444 9.03368 39.1382 9.32809 39.8946C9.32809 40.0576 9.32809 40.2206 9.32809 40.3885C8.7684 40.4971 8.20872 40.6058 7.63207 40.7177C7.57261 40.5683 7.51314 40.4189 7.45187 40.265C6.98643 39.5072 6.44968 39.2584 5.59685 38.948C4.55488 38.8216 3.81652 38.9129 2.88323 39.4007C2.42088 39.8061 2.37976 40.0185 2.30022 40.6251C2.39156 41.3471 2.4837 41.5594 3.05283 42.0347C3.8672 42.4002 4.71231 42.6555 5.58625 42.8476C7.10411 43.2 8.4636 43.6813 9.32809 44.998C9.76733 45.8507 9.59857 47.1506 9.31749 48.0333C8.62825 48.9181 7.78429 49.6319 6.65024 49.8725C4.70412 50.1023 3.1042 50.0753 1.48401 48.9799C0.662152 48.3467 0.125315 47.6782 0 46.6443C1.30082 46.1744 1.30082 46.1744 1.86562 46.315C2.06503 46.5864 2.06503 46.5864 2.26842 46.9323C2.68212 47.625 3.08653 48.0747 3.90084 48.2905C5.467 48.4665 5.467 48.4665 6.92186 47.9921C7.49049 47.4402 7.49311 46.9296 7.55125 46.1722C7.40743 45.6034 7.0733 45.3642 6.61446 44.998C6.03871 44.7476 6.03871 44.7476 5.40605 44.5761C5.18007 44.5082 4.95416 44.44 4.72831 44.3716C4.61727 44.3388 4.50624 44.306 4.39184 44.2721C3.93004 44.1324 3.47561 43.9751 3.02103 43.8148C2.8787 43.7649 2.73638 43.715 2.58974 43.6636C1.69973 43.3231 1.26691 42.9559 0.678406 42.1994C0.327071 41.1763 0.316579 39.9672 0.784407 38.9892C2.74715 36.9837 5.52808 36.59 7.99446 38.148Z" fill="#83161F"/>
<path d="M12.5508 37.425C13.1105 37.425 13.6702 37.425 14.2468 37.425C14.2468 39.1635 14.2468 40.9019 14.2468 42.693C14.6386 42.693 15.0304 42.693 15.434 42.693C15.4797 42.597 15.5254 42.501 15.5724 42.4021C15.7743 42.0324 15.9962 41.7423 16.2721 41.4217C16.4193 41.2491 16.4193 41.2491 16.5696 41.0731C16.7836 40.8258 16.9979 40.5788 17.2125 40.332C17.6871 39.7842 18.1544 39.2437 18.5663 38.6494C19.4113 37.4743 19.4113 37.4743 20.2571 37.3157C20.8115 37.3122 21.3313 37.3437 21.8789 37.425C21.4073 38.1389 20.8927 38.7899 20.3207 39.4314C20.1553 39.6188 19.9902 39.8064 19.8251 39.9941C19.743 40.0873 19.6609 40.1805 19.5763 40.2766C18.7419 41.2313 17.9346 42.2085 17.13 43.1869C17.4086 43.7979 17.7998 44.2869 18.2218 44.8126C18.2959 44.9051 18.37 44.9977 18.4463 45.0931C19.0866 45.892 19.7327 46.6866 20.3778 47.482C22.0485 49.5441 22.0485 49.5441 22.0485 49.7719C21.2793 49.8983 20.6095 49.9323 19.8436 49.7719C19.1381 49.2047 18.6596 48.5246 18.1476 47.7964C17.9481 47.5481 17.7469 47.301 17.5434 47.0556C17.2102 46.6416 16.8961 46.2237 16.5901 45.79C16.5249 45.6997 16.4598 45.6094 16.3927 45.5164C16.2066 45.2578 16.0243 44.9967 15.8421 44.7354C15.3879 44.2153 15.3879 44.2153 14.2468 44.1747C14.2468 46.0218 14.2468 47.8688 14.2468 49.7719C13.6871 49.7719 13.1274 49.7719 12.5508 49.7719C12.5508 45.6974 12.5508 41.623 12.5508 37.425Z" fill="#951720"/>
<path d="M43.5874 0.220004C44.4535 0.191764 45.2319 0.279227 46.0678 0.48752C46.186 0.516859 46.3041 0.546197 46.4258 0.576424C47.5821 0.879225 48.6324 1.3271 49.6931 1.86626C49.8887 1.96282 50.0844 2.05937 50.286 2.15885C51.7628 2.9135 52.9333 3.8441 54.1027 4.99414C54.2262 5.11425 54.3497 5.23437 54.477 5.35812C56.951 7.90633 56.951 7.90633 57.0065 9.29434C56.9222 9.69767 56.8187 10.0513 56.6467 10.4268C55.8838 9.88573 55.1501 9.32446 54.4313 8.72908C52.8646 7.48657 51.2918 6.56915 49.3539 6.00247C48.4028 5.71559 47.8514 5.48161 47.308 4.62374C47.1416 4.30838 46.9756 3.99284 46.8098 3.67714C46.0537 2.65698 45.201 1.74486 44.2658 0.878506C44.0397 0.659005 43.8135 0.439504 43.5874 0.220004Z" fill="#C31B23"/>
<path d="M23.0659 37.425C23.7918 37.2688 24.3802 37.2302 25.1011 37.425C25.792 38.1305 26.2153 38.9511 26.67 39.812C26.7989 40.0424 26.9285 40.2724 27.0588 40.5021C27.3757 41.0637 27.6825 41.6297 27.9844 42.1991C28.1625 41.9231 28.3405 41.6471 28.5183 41.3708C28.6722 41.1325 28.8271 40.8948 28.9828 40.6577C29.3559 40.0866 29.7128 39.5192 30.0236 38.9137C30.3258 38.3523 30.5862 37.8835 31.0372 37.425C31.7501 37.2498 32.3549 37.2892 33.0724 37.425C32.8466 38.0171 32.5743 38.5266 32.2224 39.0571C32.0714 39.2859 32.0714 39.2859 31.9173 39.5194C31.8123 39.6771 31.7072 39.8348 31.599 39.9972C31.4972 40.1511 31.3955 40.305 31.2906 40.4635C31.1888 40.6173 31.0871 40.7712 30.9822 40.9297C30.8803 41.087 30.7783 41.2444 30.6733 41.4065C30.3588 41.8699 30.3588 41.8699 30.0221 42.2795C28.9114 43.7013 29.0003 45.1301 29.0126 46.8395C29.0103 47.1247 29.0076 47.4099 29.0043 47.6951C28.9974 48.3875 28.9977 49.0795 29.002 49.7719C28.3863 49.7719 27.7707 49.7719 27.1364 49.7719C27.141 49.6079 27.1456 49.4439 27.1504 49.2749C27.3203 44.9638 27.3203 44.9638 25.3779 41.2241C24.8501 40.5718 24.4173 39.8574 23.9669 39.1535C23.8772 39.0183 23.7875 38.8832 23.6951 38.7439C23.6127 38.6193 23.5304 38.4948 23.4455 38.3664C23.3354 38.2007 23.3354 38.2007 23.2231 38.0317C23.0659 37.7542 23.0659 37.7542 23.0659 37.425Z" fill="#A61922"/>
<path d="M54.103 37.4248C54.6627 37.4248 55.2224 37.4248 55.799 37.4248C55.799 41.0103 55.799 44.5959 55.799 48.2901C57.1983 48.2901 58.5975 48.2901 60.0391 48.2901C60.0391 48.779 60.0391 49.268 60.0391 49.7717C58.0802 49.7717 56.1213 49.7717 54.103 49.7717C54.103 45.6972 54.103 41.6228 54.103 37.4248Z" fill="#D21A23"/>
<path d="M27.306 8.28613C27.3619 8.28613 27.4179 8.28613 27.4756 8.28613C27.4798 8.38704 27.4841 8.48795 27.4885 8.59191C27.5013 8.89421 27.5143 9.19651 27.5275 9.4988C27.5424 9.84486 27.5568 10.1909 27.5707 10.537C27.6033 11.3095 27.6388 12.0779 27.724 12.8468C27.8562 14.0655 27.842 14.9126 27.2278 16.0017C26.8124 16.8225 26.5686 17.6934 26.2979 18.5674C26.2574 18.6971 26.2168 18.8268 26.1751 18.9604C26.1396 19.0765 26.1042 19.1926 26.0676 19.3121C25.9436 19.6609 25.787 19.9777 25.61 20.3038C25.2944 18.9278 25.2138 17.6056 25.2178 16.1984C25.215 16.0033 25.2123 15.8082 25.2095 15.6071C25.2087 14.3026 25.3916 13.1553 25.7796 11.9079C25.8351 11.7207 25.8906 11.5335 25.9478 11.3407C26.3111 10.2703 26.7544 9.27794 27.306 8.28613Z" fill="#A01A23"/>
<path fill-rule="evenodd" clip-rule="evenodd" d="M75.3047 37.4248C78.8172 37.4248 79.8212 37.4248 80.726 37.7246C81.0881 37.8446 81.4343 38.0126 81.9191 38.2479C82.9179 39.2372 83.0039 39.9938 82.9977 41.3353C82.8944 42.241 82.4403 42.6813 81.7996 43.3028L81.7495 43.3513L82.0285 43.514L82.3962 43.732L82.7599 43.9462C83.4819 44.4219 83.7515 44.823 83.9544 45.6561C84.085 46.786 83.9709 47.6845 83.276 48.6193C82.6698 49.2688 82.1188 49.4876 81.2407 49.7717H75.3047V37.4248ZM77 44.1746L78.696 44.1232L79.222 44.1005C80.3288 44.0844 81.0717 44.2882 81.9184 44.9978C82.3306 45.5898 82.2931 46.1364 82.1801 46.8202C82.0044 47.4263 81.6469 47.8186 81.1024 48.1455C80.6594 48.3183 80.3255 48.3278 79.8488 48.3224L79.3948 48.3199L78.8232 48.3108L77 48.2903V44.1746ZM78.378 38.8656L77 38.9067V42.8577L78.4098 42.868L78.8519 42.8726L79.2028 42.8738C79.6733 42.8772 79.9329 42.8417 80.392 42.6931C80.9391 42.1621 81.1962 41.8543 81.4096 41.1292C81.4096 40.4451 81.2999 40.1276 80.9008 39.5652C80.1964 38.9897 79.6976 38.8346 78.8061 38.8474L78.378 38.8656Z" fill="#F51E27"/>
<path d="M27.3059 8.28613C27.3619 8.28613 27.4178 8.28613 27.4755 8.28613C27.4798 8.38704 27.484 8.48795 27.4884 8.59191C27.5012 8.89421 27.5143 9.19651 27.5274 9.4988C27.5424 9.84486 27.5568 10.1909 27.5707 10.537C27.6032 11.3095 27.6388 12.0779 27.7239 12.8468C27.8814 14.307 27.7152 15.2379 26.9667 16.5174C26.8495 16.7902 26.7352 17.0641 26.6275 17.3405C26.5715 17.3405 26.5156 17.3405 26.4579 17.3405C26.4368 16.3157 26.4215 15.2909 26.4113 14.2659C26.4071 13.9178 26.4013 13.5697 26.3939 13.2217C26.3835 12.719 26.3788 12.2165 26.3751 11.7137C26.3707 11.5601 26.3663 11.4066 26.3618 11.2484C26.3613 10.0878 26.6969 9.27832 27.3059 8.28613Z" fill="#DA1E27"/>
<path d="M57.4948 10.5908C57.6067 10.5908 57.7186 10.5908 57.834 10.5908C57.9445 10.9506 58.0538 11.3108 58.1626 11.6712C58.2541 11.972 58.2541 11.972 58.3474 12.2789C59.1675 15.3446 58.9636 18.9827 57.834 21.95C57.6661 22.0315 57.6661 22.0315 57.4948 22.1146C57.5193 21.9185 57.5437 21.7224 57.569 21.5204C57.9444 18.2903 58.1656 14.9549 57.4199 11.7638C57.3321 11.2872 57.3214 11.0366 57.4948 10.5908Z" fill="#B91E27"/>
<path d="M58.1733 13.3896C58.2853 13.3896 58.3972 13.3896 58.5125 13.3896C58.809 14.3349 58.7134 15.3441 58.7139 16.322C58.716 16.5293 58.7181 16.7365 58.7202 16.95C58.7219 17.9636 58.7144 18.8567 58.3429 19.81C58.287 19.81 58.231 19.81 58.1733 19.81C58.1733 17.6913 58.1733 15.5726 58.1733 13.3896Z" fill="#DA1D26"/>
<path d="M26.6275 9.60352C26.6835 9.60352 26.7394 9.60352 26.7971 9.60352C26.8298 10.5731 26.8601 11.5427 26.8882 12.5124C26.8981 12.8421 26.9086 13.1719 26.9198 13.5016C26.9358 13.976 26.9495 14.4504 26.9627 14.9249C26.9682 15.0719 26.9736 15.2189 26.9793 15.3703C26.9975 16.106 26.9914 16.6724 26.6275 17.3409C26.5715 17.3409 26.5156 17.3409 26.4579 17.3409C26.4536 16.2919 26.4506 15.2429 26.4486 14.1939C26.4477 13.8368 26.4466 13.4798 26.4451 13.1227C26.443 12.6103 26.4421 12.0979 26.4413 11.5855C26.4405 11.4251 26.4396 11.2648 26.4387 11.0996C26.4387 10.9513 26.4387 10.803 26.4386 10.6502C26.4383 10.5193 26.4379 10.3884 26.4375 10.2536C26.4579 9.93277 26.4579 9.93277 26.6275 9.60352Z" fill="#C31922"/>
<path d="M25.7795 11.9082C25.8355 11.9082 25.8915 11.9082 25.9491 11.9082C25.9775 12.9073 26.0048 13.9064 26.0309 14.9055C26.04 15.2455 26.0493 15.5855 26.0591 15.9254C26.073 16.4137 26.0857 16.902 26.0982 17.3904C26.1028 17.5427 26.1074 17.6949 26.1121 17.8519C26.1155 17.9935 26.1189 18.1352 26.1224 18.2812C26.1275 18.4682 26.1275 18.4682 26.1327 18.659C26.1187 18.9871 26.1187 18.9871 25.9491 19.481C25.8372 19.481 25.7252 19.481 25.6099 19.481C25.6057 18.6671 25.6026 17.8532 25.6006 17.0393C25.5998 16.7631 25.5986 16.4869 25.5971 16.2107C25.5896 14.7654 25.5882 13.3445 25.7795 11.9082Z" fill="#9A161F"/>
<path d="M57.8343 18.6572C57.8903 18.6572 57.9463 18.6572 58.0039 18.6572C58.1726 19.9513 58.2643 20.9272 57.6647 22.1144C57.4562 21.7095 57.5006 21.5153 57.5528 21.0687C57.5686 20.9287 57.5845 20.7886 57.6008 20.6443C57.6184 20.4979 57.636 20.3515 57.6541 20.2006C57.6711 20.0529 57.688 19.9052 57.7055 19.753C57.7475 19.3876 57.7905 19.0224 57.8343 18.6572Z" fill="#993036"/>
<path d="M57.4951 10.5908C57.607 10.5908 57.719 10.5908 57.8343 10.5908C58.0703 11.3799 57.9507 12.0974 57.8343 12.8956C57.7783 12.8956 57.7224 12.8956 57.6647 12.8956C57.6028 12.6353 57.5432 12.3746 57.4845 12.1136C57.451 11.9685 57.4176 11.8233 57.3831 11.6737C57.3258 11.2515 57.3574 10.9907 57.4951 10.5908Z" fill="#92232B"/>
</svg>
