<svg width="20" height="21" viewBox="0 0 20 21" fill="none" xmlns="http://www.w3.org/2000/svg">
<path d="M19.7029 4.61415C19.0071 4.92248 18.2596 5.13082 17.4737 5.22498C18.2846 4.73981 18.8912 3.9762 19.1804 3.07665C18.4186 3.52914 17.5849 3.84765 16.7154 4.01832C16.1307 3.39404 15.3563 2.98025 14.5124 2.84121C13.6684 2.70217 12.8022 2.84564 12.0481 3.24936C11.2941 3.65308 10.6944 4.29445 10.3422 5.0739C9.99003 5.85335 9.90503 6.72727 10.1004 7.55998C8.55682 7.48248 7.04677 7.08127 5.66827 6.3824C4.28977 5.68353 3.07362 4.70262 2.09875 3.50332C1.76542 4.07832 1.57375 4.74498 1.57375 5.45498C1.57338 6.09415 1.73078 6.72352 2.03198 7.28726C2.33319 7.851 2.76888 8.33168 3.30042 8.68665C2.68398 8.66704 2.08114 8.50047 1.54208 8.20082V8.25082C1.54202 9.14727 1.85211 10.0161 2.41974 10.71C2.98736 11.4038 3.77756 11.8799 4.65625 12.0575C4.0844 12.2122 3.48486 12.235 2.90292 12.1242C3.15083 12.8955 3.63375 13.57 4.28406 14.0533C4.93437 14.5365 5.71951 14.8043 6.52958 14.8192C5.15444 15.8987 3.45616 16.4842 1.70792 16.4816C1.39823 16.4817 1.08881 16.4636 0.78125 16.4275C2.55581 17.5685 4.62153 18.174 6.73125 18.1716C13.8729 18.1716 17.7771 12.2566 17.7771 7.12665C17.7771 6.95998 17.7729 6.79165 17.7654 6.62498C18.5248 6.07579 19.1803 5.39573 19.7013 4.61665L19.7029 4.61415Z" fill="black"/>
</svg>
