<svg width="20" height="21" viewBox="0 0 20 21" fill="none" xmlns="http://www.w3.org/2000/svg">
<g clip-path="url(#clip0_381_4947)">
<path d="M19.5829 5.9224C19.4696 5.51843 19.249 5.15269 18.9445 4.86407C18.6314 4.56657 18.2477 4.35376 17.8295 4.24573C16.2645 3.83323 9.99454 3.83323 9.99454 3.83323C7.38065 3.80349 4.7674 3.9343 2.16954 4.2249C1.75136 4.34091 1.36834 4.55847 1.05454 4.85823C0.746204 5.1549 0.522871 5.52073 0.406204 5.92157C0.125949 7.43135 -0.0102189 8.96435 -0.000462243 10.4999C-0.0104622 12.0341 0.125371 13.5666 0.406204 15.0782C0.520371 15.4774 0.742871 15.8416 1.05204 16.1357C1.3612 16.4299 1.7462 16.6424 2.16954 16.7549C3.75537 17.1666 9.99454 17.1666 9.99454 17.1666C12.6118 17.1963 15.2283 17.0655 17.8295 16.7749C18.2477 16.6669 18.6314 16.4541 18.9445 16.1566C19.2489 15.868 19.4693 15.5022 19.582 15.0982C19.8696 13.589 20.0094 12.0554 19.9995 10.5191C20.0212 8.97624 19.8815 7.43537 19.5829 5.92157V5.9224ZM8.0012 13.3532V7.6474L13.2179 10.5007L8.0012 13.3532Z" fill="black"/>
</g>
<defs>
<clipPath id="clip0_381_4947">
<rect width="20" height="20" fill="white" transform="translate(0 0.5)"/>
</clipPath>
</defs>
</svg>
